<svg version="1.1" id="Layer_1" xmlns="http://www.w3.org/2000/svg"
	xmlns:xlink="http://www.w3.org/1999/xlink" x="0px" y="0px"
	width="100%" viewBox="0 0 250 250" enable-background="new 0 0 250 250" xml:space="preserve">
	<style>
		.eye {
		animation: blink 2s infinite;
		transform-origin: center center;
		}

		@keyframes blink {
		0%, 90% {
		fill: #13292C;
		opacity: 1;
		}
		92%, 98% {
		fill: #ffffff;
		opacity: 0;
		}
		100% {
		fill: #13292C;
		opacity: 1;
		}
		}
	</style>
<path fill="none" opacity="1.000000" stroke="none" 
	d="
M1.000000,93.000000 
	C1.000000,62.000004 1.000000,31.500011 1.000000,1.000012 
	C84.333313,1.000008 167.666626,1.000008 250.999954,1.000004 
	C250.999969,84.333298 250.999969,167.666595 250.999985,250.999908 
	C167.666718,250.999939 84.333435,250.999939 1.000075,250.999969 
	C1.000000,198.500000 1.000000,146.000000 1.000000,93.000000 
M194.997055,198.996811 
	C194.997055,198.996811 195.011490,199.038956 195.447037,198.794754 
	C195.716919,198.584869 195.914871,198.321014 196.624802,197.677948 
	C199.087357,194.472153 201.549896,191.266342 204.606033,187.738083 
	C212.493393,178.910217 217.282700,168.470581 220.841888,157.297546 
	C223.389603,149.299713 222.449448,146.914886 215.023026,144.414276 
	C214.661758,141.990585 214.711975,139.621613 213.911972,137.586914 
	C212.674896,134.440536 213.417328,132.550812 215.987442,130.390747 
	C221.767685,125.532692 224.835968,119.279869 223.997513,111.483635 
	C223.435760,106.260193 219.413620,101.903610 215.388702,102.110092 
	C208.938034,102.441017 202.483551,102.697502 196.007690,102.062508 
	C195.977768,98.045998 195.947845,94.029488 195.971252,89.156555 
	C195.647293,86.770935 195.323334,84.385315 194.979141,81.156555 
	C194.619141,78.457497 194.259140,75.758438 194.006927,72.579010 
	C194.006927,72.579010 194.113770,72.098434 194.887680,72.050385 
	C196.239304,70.991653 197.590927,69.932922 198.942535,68.874191 
	C197.631241,67.613411 196.440323,66.174194 194.954651,65.171890 
	C194.276306,64.714241 193.016647,65.118225 191.336517,64.923553 
	C191.062683,64.746994 190.639694,64.632713 190.536285,64.385017 
	C183.122375,46.625187 169.998047,34.519859 152.480576,27.380634 
	C146.413437,24.907974 139.509415,24.488781 132.295105,22.970772 
	C129.215027,19.611750 126.134956,16.252728 122.694786,12.335477 
	C119.018394,8.003694 114.568108,4.847109 108.713593,5.112959 
	C107.138710,5.184473 105.661392,7.404568 104.139290,8.638373 
	C105.203194,9.849355 106.109184,11.265251 107.362167,12.230887 
	C110.470352,14.626249 113.737007,16.815971 117.220383,19.707998 
	C116.424133,20.479050 115.715721,21.793573 114.818306,21.938601 
	C103.605103,23.750711 93.062744,27.206167 83.576485,33.653633 
	C78.850121,36.865971 73.913269,39.768612 68.427292,42.304550 
	C54.132969,39.717224 41.026375,48.994724 37.649368,61.298286 
	C37.233974,62.811726 34.890591,63.793472 33.445721,65.027550 
	C31.975492,66.283295 30.511534,67.546387 29.044832,68.806267 
	C30.343643,70.029160 31.696432,71.200470 32.927139,72.488441 
	C34.356102,73.983902 35.869411,75.453781 37.009357,77.159775 
	C40.068501,81.737961 42.948013,86.436172 45.952137,91.974800 
	C46.217632,96.563950 46.536201,101.166359 42.049232,104.860466 
	C37.121326,106.518234 35.402348,110.063545 36.058510,115.600082 
	C36.338783,116.088081 36.619057,116.576088 37.165974,117.609291 
	C37.763012,118.408775 38.360046,119.208260 39.196411,120.420685 
	C39.396938,120.684334 39.657974,120.855896 40.452328,120.982544 
	C40.452328,120.982544 40.924782,121.033112 41.254932,121.586052 
	C42.500187,122.391212 43.745445,123.196373 44.996284,124.897484 
	C45.017925,135.140747 44.129200,145.484222 45.243454,155.607224 
	C47.873920,179.504990 59.465431,198.854736 78.291100,213.580978 
	C87.319519,220.643402 97.437065,226.097824 108.573097,228.669373 
	C106.385162,228.838013 104.197235,229.006638 101.079185,229.041931 
	C93.721664,229.089066 86.364143,229.136185 78.092979,229.053299 
	C74.951324,229.039871 71.729263,228.603516 68.699654,229.179474 
	C67.015694,229.499603 65.652664,231.507980 64.144997,232.755463 
	C65.755402,233.837753 67.262764,235.157562 69.013252,235.916946 
	C70.137886,236.404816 71.620338,236.067871 73.514915,236.712234 
	C77.036331,236.764084 80.557747,236.815933 84.998451,236.992828 
	C110.971848,236.952011 136.945251,236.911194 163.609512,236.943542 
	C164.070450,236.909409 164.531403,236.875275 165.894196,236.964798 
	C172.104065,236.639664 178.341949,236.558929 184.508011,235.851822 
	C186.561020,235.616379 188.429886,233.775299 190.537933,232.580383 
	C185.944824,227.318176 180.682602,229.621124 175.594849,228.235153 
	C173.644394,228.155869 171.693207,228.090988 169.743607,227.994583 
	C164.121964,227.716629 158.500961,227.425934 153.215637,226.634064 
	C153.814011,226.100830 154.412384,225.567596 155.767502,224.989273 
	C168.965424,220.890060 179.937180,213.149292 190.449142,203.811783 
	C190.695389,203.638809 190.886627,203.418167 191.469620,202.887634 
	C191.655518,202.604202 191.841415,202.320770 192.005692,202.001724 
	C192.005692,202.001724 192.038956,202.028244 192.497116,201.836578 
	C192.782135,201.636337 192.963501,201.366440 193.003494,200.996857 
	C193.003494,200.996857 193.026321,201.038727 193.471832,200.816910 
	C193.748398,200.612030 193.939133,200.345703 193.998779,199.998779 
	C193.998779,199.998779 194.018524,200.043793 194.461823,199.812744 
	C194.737335,199.605347 194.929794,199.338150 194.997055,198.996811 
M196.638443,228.964569 
	C194.351837,229.211121 191.343277,229.276733 192.515274,232.598206 
	C193.045761,234.101639 195.667847,235.676682 197.391144,235.734879 
	C199.337006,235.800583 201.388062,234.280731 203.241150,233.191437 
	C203.425827,233.082886 202.856857,230.655457 202.106857,230.221375 
	C200.770828,229.448105 199.028946,229.376114 196.638443,228.964569 
M51.504494,235.203537 
	C52.440979,235.455490 53.588673,236.174744 54.271774,235.866028 
	C55.897133,235.131454 57.476692,234.066971 58.653316,232.757172 
	C58.894386,232.488785 57.381916,229.668091 56.524715,229.584015 
	C54.438034,229.379333 52.216324,229.953278 50.183571,230.622437 
	C49.953091,230.698303 50.582077,233.385040 51.504494,235.203537 
z"/>
<path fill="#0E2C2C" opacity="1.000000" stroke="none" 
	d="
M36.075581,115.015991 
	C35.402348,110.063545 37.121326,106.518234 42.491737,105.217308 
	C43.356937,106.877777 43.779636,108.181404 43.991524,109.729462 
	C43.521477,111.646484 43.262238,113.319069 43.061375,115.348122 
	C48.556850,121.575378 56.180107,121.512688 63.004551,121.682129 
	C74.666931,121.971680 86.368454,120.684219 97.987000,120.399025 
	C97.298248,122.202614 96.676033,123.666290 95.674088,125.260773 
	C92.177910,125.451180 89.061478,125.510788 85.781708,125.415451 
	C85.091217,125.390739 84.564056,125.520973 83.654175,125.727325 
	C82.495415,125.758492 81.719368,125.713531 80.631760,125.465973 
	C78.549316,125.176407 76.778427,125.089432 74.544907,125.000656 
	C69.730904,125.247444 65.379539,125.496025 60.601852,125.816620 
	C57.310631,125.721748 54.445740,125.554863 51.154888,125.363174 
	C51.154888,127.493050 51.154888,129.252731 51.069130,131.473328 
	C51.073887,137.624390 51.164398,143.314514 51.198284,149.341751 
	C51.236122,150.119461 51.330589,150.560089 51.379250,151.403778 
	C52.257092,157.343170 52.374363,163.170319 54.247787,168.364029 
	C61.324951,187.984009 72.739510,204.189163 91.890129,214.084213 
	C106.437668,221.600861 121.626137,225.220459 137.996841,223.464478 
	C138.001144,223.639160 138.036942,223.986786 137.870895,224.277344 
	C136.135025,226.334869 134.565186,228.101822 132.529465,229.913727 
	C124.390892,229.309341 116.718193,228.660019 109.045502,228.010712 
	C97.437065,226.097824 87.319519,220.643402 78.291100,213.580978 
	C59.465431,198.854736 47.873920,179.504990 45.243454,155.607224 
	C44.129200,145.484222 45.017925,135.140747 45.329235,124.363083 
	C45.386505,122.905052 45.327885,121.375023 44.790455,121.182655 
	C43.632427,120.768150 42.228237,121.041344 40.924782,121.033112 
	C40.924782,121.033112 40.452328,120.982544 40.085480,120.764923 
	C39.508247,120.306122 39.254398,120.126274 38.957085,120.007744 
	C38.360046,119.208260 37.763012,118.408775 37.201344,117.174377 
	C36.849670,116.164970 36.462627,115.590485 36.075581,115.015991 
z"/>
<path fill="#0F2E2C" opacity="1.000000" stroke="none" 
	d="
M196.030670,102.985451 
	C202.483551,102.697502 208.938034,102.441017 215.388702,102.110092 
	C219.413620,101.903610 223.435760,106.260193 223.997513,111.483635 
	C224.835968,119.279869 221.767685,125.532692 215.987442,130.390747 
	C213.417328,132.550812 212.674896,134.440536 213.911972,137.586914 
	C214.711975,139.621613 214.661758,141.990585 215.023026,144.414276 
	C222.449448,146.914886 223.389603,149.299713 220.841888,157.297546 
	C217.282700,168.470581 212.493393,178.910217 204.219315,187.530396 
	C202.767578,185.593521 201.702576,183.864334 200.755432,181.841522 
	C204.650635,174.498337 208.427948,167.448776 212.477051,160.146530 
	C213.482895,157.777405 214.216965,155.660950 215.190079,152.855301 
	C212.037125,153.224442 209.514130,153.519836 206.979156,153.447784 
	C206.603699,151.662186 206.240189,150.244049 206.005737,148.510101 
	C206.789307,146.794662 207.443787,145.394989 208.418304,143.912598 
	C209.144531,141.880966 210.540085,138.917694 209.774078,138.170517 
	C207.333145,135.789627 204.088440,134.232773 200.701401,132.068207 
	C202.730225,131.242813 204.994934,130.081573 207.394806,129.388092 
	C216.154144,126.856918 220.190491,121.073456 220.402176,111.707130 
	C220.428375,110.547043 218.841843,108.604408 217.676880,108.309006 
	C214.664841,107.545219 211.470428,107.215546 208.349167,107.217567 
	C195.593430,107.225815 182.825836,107.164948 170.091751,107.756912 
	C167.371811,107.883354 164.773788,110.632790 162.107666,112.134743 
	C162.095749,112.095642 162.177261,112.089455 161.932007,112.184052 
	C161.471069,112.547508 161.255402,112.816376 161.028442,113.050919 
	C161.017166,113.016594 161.085022,113.041458 160.857269,113.150291 
	C160.428253,113.523346 160.226990,113.787567 160.012787,114.026825 
	C159.999847,114.001854 160.051010,114.025253 159.830139,114.144867 
	C159.420944,114.536423 159.232651,114.808380 159.028320,115.046783 
	C159.012283,115.013237 159.080597,115.042603 158.852722,115.168991 
	C158.445038,115.587128 158.265228,115.878860 158.080704,116.123032 
	C158.075974,116.075462 158.171448,116.080452 157.930054,116.197830 
	C157.508057,116.616089 157.327454,116.916977 157.153046,117.162735 
	C157.159256,117.107597 157.217682,117.201935 156.816925,117.204422 
	C155.687744,119.362366 154.959335,121.517822 154.299164,123.910316 
	C154.328964,124.489326 154.185333,124.779182 153.561371,125.136200 
	C152.880539,129.736725 152.529556,134.216232 152.360931,138.702606 
	C152.348358,139.037445 153.641632,139.421356 154.302399,139.814697 
	C154.276932,139.846909 154.228088,139.780884 154.154572,140.216537 
	C155.415756,144.929840 156.750473,149.207489 158.195740,153.839478 
	C158.193390,153.840744 157.084045,154.439255 155.712296,154.933655 
	C155.043121,154.211151 154.636353,153.592789 154.309601,152.836273 
	C154.357712,152.337692 154.142670,152.174149 153.789307,152.193756 
	C153.834152,152.180023 153.814346,152.271683 153.729156,152.015686 
	C153.381424,151.522263 153.118896,151.284851 152.571594,150.882660 
	C151.216568,148.810318 150.146301,146.902740 149.184662,144.866760 
	C149.105530,144.529434 148.917786,144.320511 148.467438,143.872711 
	C147.694107,141.342194 147.183395,139.050537 146.797424,136.318726 
	C146.920792,132.910355 146.919434,129.942154 146.879608,126.645493 
	C147.072540,125.485664 147.303909,124.654312 147.907684,123.855019 
	C149.089035,123.495865 149.897995,123.104637 150.706955,122.713409 
	C150.142975,121.810066 149.579010,120.906715 149.019058,119.651764 
	C150.316254,117.186554 151.609451,115.072952 153.130981,112.805252 
	C153.535721,112.334236 153.712097,112.017334 153.934113,111.489059 
	C154.147278,111.003891 154.391403,110.873947 155.093643,110.905624 
	C156.986649,109.360687 158.498108,107.797997 160.332031,106.044945 
	C167.102936,104.564018 173.551376,103.273445 180.445129,102.077942 
	C183.616501,102.123062 186.342575,102.073105 189.407547,102.068771 
	C191.841202,102.404755 193.935928,102.695107 196.030670,102.985451 
M152.491791,116.540817 
	C152.491791,116.540817 152.465073,116.482269 152.491791,116.540817 
z"/>
<path fill="#103031" opacity="1.000000" stroke="none" 
	d="
M69.071632,42.811344 
	C73.913269,39.768612 78.850121,36.865971 83.576485,33.653633 
	C93.062744,27.206167 103.605103,23.750711 114.818306,21.938601 
	C115.715721,21.793573 116.424133,20.479050 117.216110,19.178978 
	C117.473579,18.433599 117.735329,18.217239 118.235825,18.229858 
	C119.356911,21.987555 119.531815,25.875511 122.894592,28.030872 
	C105.775734,28.612631 91.102966,34.542267 77.851944,44.692490 
	C87.329788,51.690651 90.851891,56.726036 92.047844,65.298653 
	C91.754898,69.397926 91.480080,73.049400 91.195511,77.028946 
	C91.545403,78.564766 88.238258,80.599792 92.222725,81.354172 
	C94.701355,82.037788 96.973129,82.403610 99.170563,82.827789 
	C99.096222,82.886162 99.204605,82.731277 99.189438,83.088501 
	C99.230515,84.501991 99.286766,85.558266 99.374168,87.199715 
	C95.103271,85.037628 91.244423,83.431587 87.698715,87.964523 
	C84.284355,89.518120 81.205444,90.923454 77.990936,92.000053 
	C77.569626,90.775688 77.283897,89.880058 76.996948,88.601616 
	C76.986458,87.452705 76.977188,86.686607 77.058563,85.702049 
	C77.365829,85.242279 77.629318,85.074669 78.327972,84.984055 
	C79.772362,84.222702 80.828484,83.458023 81.944984,82.401001 
	C82.385521,81.209816 82.765678,80.310974 83.382141,79.256577 
	C83.684242,78.741264 83.750031,78.381500 83.950577,77.716820 
	C84.115974,76.968483 84.146606,76.525078 84.491623,75.860321 
	C87.875908,64.613380 82.472893,54.287880 70.373604,49.469654 
	C66.579208,55.173004 62.662334,61.060452 58.544724,66.675560 
	C56.892620,65.600304 55.441246,64.797386 54.004242,63.625221 
	C56.196735,59.483898 58.296452,55.663254 60.589058,51.962090 
	C61.597786,50.333599 63.071072,48.938065 59.862114,47.761574 
	C57.755550,44.721867 59.952381,45.279892 61.559151,44.947906 
	C64.101906,44.422527 66.571236,43.541737 69.071632,42.811344 
z"/>
<path fill="#0F2E2F" opacity="1.000000" stroke="none" 
	d="
M132.987640,23.131649 
	C139.509415,24.488781 146.413437,24.907974 152.480576,27.380634 
	C169.998047,34.519859 183.122375,46.625187 190.536285,64.385017 
	C190.639694,64.632713 191.062683,64.746994 191.614166,65.378418 
	C190.588745,68.646484 190.798431,70.923180 194.113770,72.098434 
	C194.113770,72.098434 194.006927,72.579010 193.658447,72.998657 
	C192.181152,76.307999 191.052353,79.197685 189.569046,82.994949 
	C192.245071,82.504501 193.622223,82.252098 194.999390,81.999695 
	C195.323334,84.385315 195.647293,86.770935 195.545319,89.579681 
	C193.253433,89.998596 191.387497,89.994392 189.415054,89.567436 
	C189.074265,86.354408 188.839966,83.564140 188.641693,80.458511 
	C188.504440,79.766510 188.331161,79.389870 188.020035,78.663467 
	C185.263641,70.039345 186.902496,71.166595 178.738693,71.964851 
	C178.331390,71.951103 178.170502,72.009529 177.755463,71.970871 
	C177.328506,71.818726 177.155685,71.763649 176.879059,71.596054 
	C176.454208,71.354240 176.199600,71.443489 175.679596,71.836487 
	C174.898575,71.990547 174.449341,72.059441 173.579727,72.043655 
	C171.446808,71.993011 169.734238,72.027046 168.014343,71.674728 
	C167.363098,70.154823 166.706039,69.028503 166.078812,67.885811 
	C165.371765,66.597786 164.691574,65.295021 164.251953,63.997894 
	C164.672333,63.995983 164.840485,63.994850 165.247406,63.990170 
	C165.486191,63.986618 165.963669,63.974876 166.275894,63.963219 
	C166.796097,63.939968 167.004074,63.928379 167.516663,64.190056 
	C171.201736,64.579399 174.582184,64.695473 178.363800,64.876465 
	C180.111557,64.880699 181.458145,64.820007 183.434494,64.730934 
	C181.908859,62.058922 180.723175,59.982327 179.376648,57.579239 
	C177.584900,54.757812 176.240158,52.006920 174.275528,49.810501 
	C163.511993,37.777100 149.684235,31.483288 134.144989,28.538387 
	C133.854919,26.553238 133.421280,24.842443 132.987640,23.131649 
z"/>
<path fill="#0E2B2C" opacity="1.000000" stroke="none" 
	d="
M68.749466,42.557949 
	C66.571236,43.541737 64.101906,44.422527 61.559151,44.947906 
	C59.952381,45.279892 57.755550,44.721867 59.625362,48.011055 
	C44.401432,54.815376 38.782265,69.893387 47.095535,82.439209 
	C49.430344,83.537880 51.705280,84.272499 54.037544,85.387634 
	C54.878277,86.631897 55.541862,88.065422 56.466030,88.259766 
	C60.265625,89.058739 64.144447,89.480919 67.917175,90.380753 
	C64.821968,93.150276 62.465851,95.914642 62.862751,100.445419 
	C58.477982,102.496628 54.303276,104.275711 49.898277,105.824005 
	C50.948917,102.805084 52.229851,100.016960 53.398537,97.473175 
	C51.028805,95.455193 48.463837,93.270958 45.898865,91.086723 
	C42.948013,86.436172 40.068501,81.737961 37.009357,77.159775 
	C35.869411,75.453781 34.356102,73.983902 32.927139,72.488441 
	C31.696432,71.200470 30.343643,70.029160 29.044830,68.806267 
	C30.511534,67.546387 31.975492,66.283295 33.445721,65.027550 
	C34.890591,63.793472 37.233974,62.811726 37.649368,61.298286 
	C41.026375,48.994724 54.132969,39.717224 68.749466,42.557949 
M55.552635,95.515572 
	C55.552635,95.515572 55.482628,95.551765 55.552635,95.515572 
z"/>
<path fill="#152F2C" opacity="1.000000" stroke="none" 
	d="
M190.062454,204.023895 
	C179.937180,213.149292 168.965424,220.890060 155.431366,224.662308 
	C155.783142,222.245575 155.841278,220.758163 152.818726,221.178131 
	C151.551147,221.354248 150.190247,220.858887 149.032089,220.422958 
	C149.805481,219.812073 150.418564,219.447037 151.368866,219.053879 
	C152.140503,218.975006 152.574936,218.924271 153.272675,218.884949 
	C153.720657,218.606964 153.905334,218.317551 154.449554,218.031708 
	C156.205688,217.321182 157.602249,216.607101 159.328583,216.008484 
	C160.796295,215.431015 161.934235,214.738083 163.039886,214.026184 
	C163.007599,214.007233 163.043030,214.073181 163.335510,214.028046 
	C164.134232,213.765671 164.640488,213.548431 165.435730,213.272247 
	C166.170700,212.865189 166.616653,212.517090 167.388702,212.125488 
	C168.460861,211.633270 169.206909,211.184555 170.283600,210.666656 
	C173.172836,208.751236 175.731445,206.905014 178.620483,204.958817 
	C180.345245,203.754669 181.739594,202.650513 183.398956,201.435059 
	C184.009308,201.175079 184.354675,201.026413 185.071747,200.913025 
	C186.983124,201.973495 188.522781,202.998703 190.062454,204.023895 
z"/>
<path fill="#526A66" opacity="1.000000" stroke="none" 
	d="
M108.809296,228.340027 
	C116.718193,228.660019 124.390892,229.309341 132.942688,229.959763 
	C135.205765,229.900070 136.589737,229.839264 138.027374,230.167633 
	C138.392197,232.354019 138.703323,234.151230 138.544556,235.968628 
	C124.043785,235.971268 110.012932,235.953735 96.000839,235.558380 
	C98.016174,233.178802 100.012741,231.177032 102.009300,229.175262 
	C104.197235,229.006638 106.385162,228.838013 108.809296,228.340027 
z"/>
<path fill="#4B655F" opacity="1.000000" stroke="none" 
	d="
M139.014450,235.948456 
	C138.703323,234.151230 138.392197,232.354019 138.313385,229.967438 
	C140.406403,228.954742 142.267120,228.531387 144.430725,228.375702 
	C150.174347,228.794312 155.615051,228.945282 161.253876,229.300079 
	C162.285843,229.363129 163.119705,229.222351 164.295715,229.053406 
	C165.094803,229.044434 165.551727,229.063629 166.082489,229.402374 
	C167.040115,230.817093 167.923935,231.912277 168.916885,233.142715 
	C167.460602,234.515091 166.226471,235.678101 164.992340,236.841125 
	C164.531403,236.875275 164.070450,236.909409 162.948761,236.647369 
	C154.530167,236.216934 146.772308,236.082703 139.014450,235.948456 
z"/>
<path fill="#0E3536" opacity="1.000000" stroke="none" 
	d="
M132.641373,23.051212 
	C133.421280,24.842443 133.854919,26.553238 133.738586,28.598162 
	C129.889359,28.602652 126.590141,28.273012 123.290924,27.943375 
	C119.531815,25.875511 119.356911,21.987555 118.177864,17.880165 
	C116.932381,15.504987 115.983612,13.708477 114.780266,11.429924 
	C118.467850,12.082259 120.761360,12.487984 123.054878,12.893707 
	C126.134956,16.252728 129.215027,19.611750 132.641373,23.051212 
z"/>
<path fill="#4A645D" opacity="1.000000" stroke="none" 
	d="
M101.544243,229.108612 
	C100.012741,231.177032 98.016174,233.178802 95.547180,235.576599 
	C91.409554,236.271027 87.744354,236.569397 84.079163,236.867767 
	C80.557747,236.815933 77.036331,236.764084 73.391281,236.105835 
	C75.180649,233.394058 77.093636,231.288681 79.006622,229.183304 
	C86.364143,229.136185 93.721664,229.089066 101.544243,229.108612 
z"/>
<path fill="#495E58" opacity="1.000000" stroke="none" 
	d="
M165.443268,236.902954 
	C166.226471,235.678101 167.460602,234.515091 168.916885,233.142715 
	C167.923935,231.912277 167.040115,230.817093 166.535400,229.371674 
	C169.947784,229.012604 172.981064,229.003784 176.014343,228.994965 
	C180.682602,229.621124 185.944824,227.318176 190.537933,232.580383 
	C188.429886,233.775299 186.561020,235.616379 184.508011,235.851822 
	C178.341949,236.558929 172.104065,236.639664 165.443268,236.902954 
z"/>
<path fill="#0E2624" opacity="1.000000" stroke="none" 
	d="
M190.255798,203.917847 
	C188.522781,202.998703 186.983124,201.973495 185.224243,200.606613 
	C190.215866,194.221664 195.426727,188.178406 200.637573,182.135162 
	C201.702576,183.864334 202.767578,185.593521 203.922516,187.691620 
	C201.549896,191.266342 199.087357,194.472153 196.117767,197.966461 
	C195.343384,198.464615 195.143631,198.725937 195.011490,199.038956 
	C195.011490,199.038956 194.997055,198.996811 194.802948,199.127625 
	C194.340622,199.466522 194.143860,199.728302 194.018524,200.043793 
	C194.018524,200.043793 193.998779,199.998779 193.806061,200.128708 
	C193.345352,200.464249 193.149689,200.724274 193.026321,201.038727 
	C193.026321,201.038727 193.003494,200.996857 192.807251,201.125977 
	C192.341827,201.454712 192.151154,201.712433 192.038956,202.028244 
	C192.038956,202.028244 192.005692,202.001724 191.792572,202.147217 
	C191.393921,202.578415 191.208389,202.864136 191.022858,203.149857 
	C190.886627,203.418167 190.695389,203.638809 190.255798,203.917847 
M192.459564,195.493515 
	C192.459564,195.493515 192.516556,195.467667 192.459564,195.493515 
z"/>
<path fill="#122E2E" opacity="1.000000" stroke="none" 
	d="
M122.874832,12.614593 
	C120.761360,12.487984 118.467850,12.082259 114.780266,11.429924 
	C115.983612,13.708477 116.932381,15.504987 117.939117,17.651188 
	C117.735329,18.217239 117.473579,18.433599 117.075920,18.869129 
	C113.737007,16.815971 110.470352,14.626249 107.362167,12.230887 
	C106.109184,11.265251 105.203194,9.849355 104.139290,8.638374 
	C105.661392,7.404568 107.138710,5.184473 108.713593,5.112959 
	C114.568108,4.847109 119.018394,8.003694 122.874832,12.614593 
z"/>
<path fill="#113232" opacity="1.000000" stroke="none" 
	d="
M144.127838,228.108032 
	C142.267120,228.531387 140.406403,228.954742 138.259689,229.578278 
	C136.589737,229.839264 135.205765,229.900070 133.408569,229.914825 
	C134.565186,228.101822 136.135025,226.334869 138.191986,224.276489 
	C139.449051,223.691620 140.218948,223.398178 141.207794,223.048813 
	C141.426743,222.992905 141.876831,222.952133 142.216324,222.959167 
	C143.370895,222.670242 144.185959,222.374283 145.206543,222.024475 
	C145.412079,221.970612 145.835922,221.940445 146.062042,221.853394 
	C146.581284,221.612381 146.817764,221.396408 147.306900,221.031113 
	C148.034714,220.852127 148.453247,220.760468 148.871780,220.668808 
	C150.190247,220.858887 151.551147,221.354248 152.818726,221.178131 
	C155.841278,220.758163 155.783142,222.245575 155.053009,224.684845 
	C154.412384,225.567596 153.814011,226.100830 152.749847,226.745270 
	C149.565308,227.273666 146.846573,227.690857 144.127838,228.108032 
z"/>
<path fill="#153A3A" opacity="1.000000" stroke="none" 
	d="
M45.925499,91.530762 
	C48.463837,93.270958 51.028805,95.455193 53.398537,97.473175 
	C52.229851,100.016960 50.948917,102.805084 49.672058,106.081078 
	C47.851540,107.540977 46.026939,108.513000 44.202335,109.485031 
	C43.779636,108.181404 43.356937,106.877777 42.847168,105.159721 
	C46.536201,101.166359 46.217632,96.563950 45.925499,91.530762 
z"/>
<path fill="#183739" opacity="1.000000" stroke="none" 
	d="
M189.521545,89.990189 
	C191.387497,89.994392 193.253433,89.998596 195.518646,90.007889 
	C195.947845,94.029488 195.977768,98.045998 196.019180,102.523979 
	C193.935928,102.695107 191.841202,102.404755 189.421814,101.605865 
	C189.238632,97.394951 189.380096,93.692574 189.521545,89.990189 
z"/>
<path fill="#718179" opacity="1.000000" stroke="none" 
	d="
M84.538803,236.930298 
	C87.744354,236.569397 91.409554,236.271027 95.528412,235.954422 
	C110.012932,235.953735 124.043785,235.971268 138.544556,235.968628 
	C146.772308,236.082703 154.530167,236.216934 162.603333,236.610779 
	C136.945251,236.911194 110.971848,236.952011 84.538803,236.930298 
z"/>
<path fill="#465F57" opacity="1.000000" stroke="none" 
	d="
M78.549805,229.118301 
	C77.093636,231.288681 75.180649,233.394058 73.105026,235.800018 
	C71.620338,236.067871 70.137886,236.404816 69.013252,235.916946 
	C67.262764,235.157562 65.755402,233.837753 64.144997,232.755463 
	C65.652664,231.507980 67.015694,229.499603 68.699654,229.179474 
	C71.729263,228.603516 74.951324,229.039871 78.549805,229.118301 
z"/>
<path fill="#18302F" opacity="1.000000" stroke="none" 
	d="
M197.047607,228.987701 
	C199.028946,229.376114 200.770828,229.448105 202.106857,230.221375 
	C202.856857,230.655457 203.425827,233.082886 203.241150,233.191437 
	C201.388062,234.280731 199.337006,235.800583 197.391144,235.734879 
	C195.667847,235.676682 193.045761,234.101639 192.515274,232.598206 
	C191.343277,229.276733 194.351837,229.211121 197.047607,228.987701 
z"/>
<path fill="#0B2B2B" opacity="1.000000" stroke="none" 
	d="
M51.158512,235.032318 
	C50.582077,233.385040 49.953091,230.698303 50.183571,230.622437 
	C52.216324,229.953278 54.438034,229.379333 56.524715,229.584015 
	C57.381916,229.668091 58.894386,232.488785 58.653316,232.757172 
	C57.476692,234.066971 55.897133,235.131454 54.271774,235.866028 
	C53.588673,236.174744 52.440979,235.455490 51.158512,235.032318 
z"/>
<path fill="#183739" opacity="1.000000" stroke="none" 
	d="
M194.500732,72.074409 
	C190.798431,70.923180 190.588745,68.646484 191.956223,65.482346 
	C193.016647,65.118225 194.276306,64.714241 194.954651,65.171890 
	C196.440323,66.174194 197.631241,67.613411 198.942535,68.874191 
	C197.590927,69.932922 196.239304,70.991653 194.500732,72.074409 
z"/>
<path fill="#7F9489" opacity="1.000000" stroke="none" 
	d="
M144.430725,228.375702 
	C146.846573,227.690857 149.565308,227.273666 152.581879,226.998383 
	C158.500961,227.425934 164.121964,227.716629 169.743607,227.994583 
	C171.693207,228.090988 173.644394,228.155869 175.804596,228.615051 
	C172.981064,229.003784 169.947784,229.012604 166.461578,229.052124 
	C165.551727,229.063629 165.094803,229.044434 163.934113,229.025421 
	C162.505478,229.049164 161.780624,229.072708 161.055771,229.096252 
	C155.615051,228.945282 150.174347,228.794312 144.430725,228.375702 
z"/>
<path fill="#183739" opacity="1.000000" stroke="none" 
	d="
M194.989258,81.578125 
	C193.622223,82.252098 192.245071,82.504501 189.569046,82.994949 
	C191.052353,79.197685 192.181152,76.307999 193.604553,73.238846 
	C194.259140,75.758438 194.619141,78.457497 194.989258,81.578125 
z"/>
<path fill="#132C28" opacity="1.000000" stroke="none" 
	d="
M41.089859,121.309586 
	C42.228237,121.041344 43.632427,120.768150 44.790455,121.182655 
	C45.327885,121.375023 45.386505,122.905052 45.326443,123.915108 
	C43.745445,123.196373 42.500187,122.391212 41.089859,121.309586 
z"/>
<path fill="#132C28" opacity="1.000000" stroke="none" 
	d="
M36.067047,115.308037 
	C36.462627,115.590485 36.849670,116.164970 37.068024,116.901779 
	C36.619057,116.576088 36.338783,116.088081 36.067047,115.308037 
z"/>
<path fill="#152F2C" opacity="1.000000" stroke="none" 
	d="
M191.246246,203.018738 
	C191.208389,202.864136 191.393921,202.578415 191.803406,202.165009 
	C191.841415,202.320770 191.655518,202.604202 191.246246,203.018738 
z"/>
<path fill="#152F2C" opacity="1.000000" stroke="none" 
	d="
M192.268036,201.932404 
	C192.151154,201.712433 192.341827,201.454712 192.826111,201.140991 
	C192.963501,201.366440 192.782135,201.636337 192.268036,201.932404 
z"/>
<path fill="#132C28" opacity="1.000000" stroke="none" 
	d="
M39.076748,120.214218 
	C39.254398,120.126274 39.508247,120.306122 39.849079,120.741333 
	C39.657974,120.855896 39.396938,120.684334 39.076748,120.214218 
z"/>
<path fill="#152F2C" opacity="1.000000" stroke="none" 
	d="
M193.249084,200.927826 
	C193.149689,200.724274 193.345352,200.464249 193.828705,200.138275 
	C193.939133,200.345703 193.748398,200.612030 193.249084,200.927826 
z"/>
<path fill="#152F2C" opacity="1.000000" stroke="none" 
	d="
M195.229263,198.916855 
	C195.143631,198.725937 195.343384,198.464615 195.825821,198.129089 
	C195.914871,198.321014 195.716919,198.584869 195.229263,198.916855 
z"/>
<path fill="#152F2C" opacity="1.000000" stroke="none" 
	d="
M194.240173,199.928268 
	C194.143860,199.728302 194.340622,199.466522 194.824036,199.134796 
	C194.929794,199.338150 194.737335,199.605347 194.240173,199.928268 
z"/>
<path fill="#F7FAF1" opacity="1.000000" stroke="none" 
	d="
M145.835922,221.940445 
	C145.835922,221.940445 145.412079,221.970612 144.857132,221.930496 
	C143.493729,222.244308 142.685287,222.598221 141.876831,222.952133 
	C141.876831,222.952133 141.426743,222.992905 140.837402,222.948868 
	C139.496216,223.033157 138.744370,223.161484 137.992538,223.289795 
	C121.626137,225.220459 106.437668,221.600861 91.890129,214.084213 
	C72.739510,204.189163 61.324951,187.984009 54.247787,168.364029 
	C52.374363,163.170319 52.257092,157.343170 51.696419,151.483612 
	C53.087566,153.853851 54.502068,156.474884 55.025135,159.263138 
	C55.465923,161.612823 54.385731,164.396927 58.061707,165.401550 
	C58.419147,167.594666 58.892792,169.380539 58.966309,171.182770 
	C59.225060,177.525894 62.804871,182.689270 67.008888,186.278564 
	C70.754318,189.476364 76.515938,190.681076 81.599274,191.827759 
	C85.723137,192.758026 89.247246,193.582123 91.042679,197.920044 
	C92.225677,200.778305 93.182762,204.528412 95.454498,205.979889 
	C101.053566,209.557297 107.104515,213.639740 113.423141,214.618637 
	C125.448883,216.481735 137.788361,216.319824 150.119904,217.262695 
	C150.505386,218.045090 150.768524,218.563553 151.031647,219.082001 
	C150.418564,219.447037 149.805481,219.812073 149.032089,220.422958 
	C148.453247,220.760468 148.034714,220.852127 147.032135,220.997116 
	C146.244034,221.347107 146.039978,221.643784 145.835922,221.940445 
z"/>
<path fill="#E2E2D4" opacity="1.000000" stroke="none" 
	d="
M51.154888,131.012421 
	C51.154888,129.252731 51.154888,127.493050 51.154888,125.363174 
	C54.445740,125.554863 57.310631,125.721748 61.057281,125.906517 
	C66.291168,125.879311 70.643295,125.834221 75.416908,125.860794 
	C77.540039,125.844505 79.241684,125.756538 80.943329,125.668579 
	C81.719368,125.713531 82.495415,125.758492 83.970818,125.819313 
	C85.095131,125.746918 85.520088,125.658653 85.945038,125.570389 
	C89.061478,125.510788 92.177910,125.451180 96.119400,125.386482 
	C103.905235,125.173683 110.933693,125.272636 117.226822,120.960815 
	C117.465179,120.962891 117.931641,120.864182 118.073074,121.087593 
	C118.478455,121.540421 118.742386,121.769844 118.844925,122.297852 
	C115.423096,125.032593 112.162666,127.468735 108.506393,129.941010 
	C98.072281,131.312424 88.034012,132.647720 77.536041,133.973572 
	C69.387306,133.293930 61.698273,132.623734 53.787327,131.733749 
	C52.761906,131.346802 51.958397,131.179611 51.154888,131.012421 
z"/>
<path fill="#FBFBF0" opacity="1.000000" stroke="none" 
	d="
M54.009239,131.953522 
	C61.698273,132.623734 69.387306,133.293930 77.464752,134.309052 
	C77.296295,135.229568 76.827194,135.944305 76.169113,136.359482 
	C68.638252,141.110733 61.719765,146.218582 60.627110,156.147110 
	C60.295670,159.158783 58.901707,162.053528 57.994411,165.001831 
	C54.385731,164.396927 55.465923,161.612823 55.025135,159.263138 
	C54.502068,156.474884 53.087566,153.853851 51.742218,151.080536 
	C51.330589,150.560089 51.236122,150.119461 51.537682,149.209610 
	C52.625549,143.144760 53.317394,137.549133 54.009239,131.953522 
z"/>
<path fill="#F2F5E3" opacity="1.000000" stroke="none" 
	d="
M43.991524,109.729462 
	C46.026939,108.513000 47.851540,107.540977 49.902355,106.311874 
	C54.303276,104.275711 58.477982,102.496628 63.223152,100.399429 
	C68.571259,97.497147 73.348892,94.912971 78.126526,92.328796 
	C81.205444,90.923454 84.284355,89.518120 88.133743,87.984787 
	C91.647224,88.439148 94.390228,89.021500 96.778931,89.812088 
	C93.277275,91.061699 90.129921,92.103065 86.660782,93.188530 
	C84.750557,94.316971 83.162117,95.401306 81.256607,96.588959 
	C79.436615,97.614342 77.933701,98.536423 76.166458,99.499268 
	C75.595459,99.718132 75.288780,99.896217 74.659538,100.040894 
	C73.465302,100.588737 72.593620,101.169983 71.523956,101.810783 
	C71.325981,101.870338 71.000542,102.125389 70.679993,102.102440 
	C69.453575,102.625519 68.547699,103.171547 67.458885,103.748352 
	C67.275948,103.779137 66.978996,104.001556 66.718445,104.002884 
	C66.223045,104.243294 65.988205,104.482368 65.859390,104.742676 
	C65.965416,104.763901 65.766800,104.678307 65.422775,104.691071 
	C63.690041,105.444710 62.301331,106.185593 60.593292,106.972534 
	C59.122845,107.564743 57.971725,108.110893 56.468060,108.676666 
	C54.341957,109.705513 52.568405,110.714745 50.876255,111.753265 
	C50.957657,111.782555 50.792114,111.706833 50.436676,111.728973 
	C48.303577,112.873001 46.525917,113.994888 44.456345,115.114494 
	C43.777287,115.072037 43.390141,115.031845 43.002998,114.991653 
	C43.262238,113.319069 43.521477,111.646484 43.991524,109.729462 
z"/>
<path fill="#153639" opacity="1.000000" stroke="none" 
	d="
M116.988464,120.958740 
	C110.933693,125.272636 103.905235,125.173683 96.499130,125.255676 
	C96.676033,123.666290 97.298248,122.202614 98.350662,120.387192 
	C99.511253,120.032974 100.241661,120.030510 101.033997,120.300079 
	C101.737038,120.389023 102.378128,120.205940 103.415741,120.020523 
	C105.564438,119.422585 107.316620,118.826965 109.285744,118.156120 
	C109.502686,118.080894 109.951866,117.985283 110.355759,117.999359 
	C114.630943,118.499832 117.184135,116.368996 118.578278,113.241837 
	C121.528107,106.625130 116.458107,97.053894 109.094681,94.501862 
	C109.315613,92.059723 105.085808,89.767799 109.638000,87.934708 
	C110.632118,88.736786 111.324364,89.460365 112.168594,90.353638 
	C112.557999,90.722733 112.827499,90.858475 113.091858,90.938293 
	C113.054649,90.946022 113.051224,90.870087 113.213051,91.129776 
	C113.703331,91.632660 114.031776,91.875862 114.636223,92.256081 
	C116.891251,94.408409 118.870285,96.423721 120.962524,98.752953 
	C121.734375,100.043831 122.393021,101.020790 123.060371,102.409615 
	C125.728973,109.158508 123.460480,114.358047 119.048637,119.222580 
	C118.541122,119.589447 118.291702,119.856186 118.044403,120.083672 
	C118.046524,120.044426 118.124069,120.057243 117.898254,120.157745 
	C117.382362,120.431122 117.154373,120.664619 116.988464,120.958740 
z"/>
<path fill="#132C28" opacity="1.000000" stroke="none" 
	d="
M100.972061,120.028038 
	C100.241661,120.030510 99.511253,120.032974 98.417198,120.047279 
	C86.368454,120.684219 74.666931,121.971680 63.004551,121.682129 
	C56.180107,121.512688 48.556850,121.575378 43.061375,115.348114 
	C43.390141,115.031845 43.777287,115.072037 44.689564,115.391251 
	C47.721298,116.449593 50.227901,117.228905 52.989254,118.167740 
	C53.818623,118.313019 54.393238,118.298767 55.326653,118.393929 
	C56.432480,118.529984 57.179512,118.556641 58.368240,118.719276 
	C61.534496,118.778694 64.259056,118.702126 67.393494,118.679115 
	C69.176453,118.672180 70.549545,118.611679 72.380554,118.676620 
	C75.999077,118.824371 79.161049,118.917267 82.320007,118.855583 
	C91.236931,118.681465 100.152626,118.443916 109.068802,118.231354 
	C107.316620,118.826965 105.564438,119.422585 103.074486,120.014786 
	C101.881828,120.016930 101.426949,120.022484 100.972061,120.028038 
z"/>
<path fill="#F7FAF1" opacity="1.000000" stroke="none" 
	d="
M53.787331,131.733749 
	C53.317394,137.549133 52.625549,143.144760 51.594307,148.872513 
	C51.164398,143.314514 51.073887,137.624390 51.069130,131.473328 
	C51.958397,131.179611 52.761906,131.346802 53.787331,131.733749 
z"/>
<path fill="#132C28" opacity="1.000000" stroke="none" 
	d="
M74.995422,125.789124 
	C70.643295,125.834221 66.291168,125.879311 61.483612,125.834503 
	C65.379539,125.496025 69.730904,125.247444 74.536957,125.197243 
	C74.991653,125.395622 74.995422,125.789124 74.995422,125.789124 
z"/>
<path fill="#203F3D" opacity="1.000000" stroke="none" 
	d="
M75.416908,125.860794 
	C74.995422,125.789124 74.991653,125.395622 74.999603,125.199036 
	C76.778427,125.089432 78.549316,125.176407 80.631760,125.465981 
	C79.241684,125.756538 77.540039,125.844505 75.416908,125.860794 
z"/>
<path fill="#152F2C" opacity="1.000000" stroke="none" 
	d="
M137.996841,223.464478 
	C138.744370,223.161484 139.496216,223.033157 140.618454,223.004776 
	C140.218948,223.398178 139.449051,223.691620 138.358032,223.985931 
	C138.036942,223.986786 138.001144,223.639160 137.996841,223.464478 
z"/>
<path fill="#203F3D" opacity="1.000000" stroke="none" 
	d="
M85.781708,125.415451 
	C85.520088,125.658653 85.095131,125.746918 84.353531,125.743195 
	C84.564056,125.520973 85.091217,125.390739 85.781708,125.415451 
z"/>
<path fill="#F6BA16" opacity="1.000000" stroke="none" 
	d="
M208.098267,143.995316 
	C207.443787,145.394989 206.789307,146.794662 205.694275,148.649826 
	C204.083618,150.201569 203.037857,151.486221 201.718826,152.356873 
	C198.450333,154.514297 195.301529,157.325333 191.670853,158.378891 
	C176.961182,162.647369 162.056854,159.030258 154.228088,139.780884 
	C154.228088,139.780884 154.276932,139.846909 154.289413,139.405548 
	C154.180099,134.315094 154.058319,129.666000 153.936523,125.016907 
	C154.185333,124.779182 154.328964,124.489326 154.562241,123.648041 
	C155.577271,121.166466 156.397476,119.184196 157.217682,117.201935 
	C157.217682,117.201935 157.159256,117.107597 157.419464,117.078629 
	C157.843597,116.726585 158.007523,116.403519 158.171448,116.080452 
	C158.171448,116.080452 158.075974,116.075462 158.335892,116.029083 
	C158.757401,115.669334 158.919006,115.355965 159.080597,115.042603 
	C159.080597,115.042603 159.012283,115.013237 159.282532,114.969444 
	C159.718872,114.625519 159.884949,114.325386 160.051010,114.025253 
	C160.051010,114.025253 159.999847,114.001854 160.267273,113.952621 
	C160.718140,113.616081 160.901581,113.328766 161.085022,113.041458 
	C161.085022,113.041458 161.017166,113.016594 161.293961,112.985672 
	C161.772919,112.666313 161.975082,112.377884 162.177261,112.089455 
	C162.177261,112.089455 162.095749,112.095642 162.485229,112.057365 
	C168.243164,111.112480 173.582275,109.771988 178.987320,109.406670 
	C186.097900,108.926086 193.260300,109.209755 200.400452,109.170113 
	C205.060608,109.144241 209.720810,109.120537 214.381012,109.109779 
	C217.346924,109.102928 218.476425,110.631958 218.355209,113.539597 
	C218.083084,120.066162 214.314011,125.206108 208.018127,127.327667 
	C205.497528,128.177048 202.855240,128.755051 200.472504,129.886520 
	C199.253281,130.465485 198.484436,131.992889 197.512024,133.091614 
	C198.575775,133.974182 199.696350,135.675354 200.693985,135.606079 
	C207.033585,135.165909 208.450378,138.719971 208.098267,143.995316 
z"/>
<path fill="#FBFBF0" opacity="1.000000" stroke="none" 
	d="
M123.051659,101.997749 
	C122.393021,101.020790 121.734375,100.043831 121.004509,98.355232 
	C121.311203,94.856293 122.246704,93.356224 125.490906,94.860016 
	C126.770966,95.453354 128.559296,94.950157 130.510391,94.959045 
	C137.933289,97.454994 144.932724,96.651634 152.200073,95.072128 
	C159.698105,95.790123 166.918732,96.220665 174.210922,96.655472 
	C173.499268,94.728561 172.158325,92.977539 172.472565,91.605675 
	C173.529312,86.992432 175.175491,82.514198 176.596130,77.984306 
	C176.119049,78.021797 175.641953,78.059288 175.164871,78.096779 
	C174.776611,76.107300 174.388351,74.117813 174.000092,72.128334 
	C174.449341,72.059441 174.898575,71.990547 175.925995,71.905869 
	C176.663727,71.829575 176.823303,71.769073 176.982880,71.708565 
	C177.155685,71.763649 177.328506,71.818726 177.883820,72.163925 
	C178.471558,72.693062 178.718521,72.875671 179.173370,73.384201 
	C179.559647,83.171974 179.779724,92.577431 179.999802,101.982880 
	C173.551376,103.273445 167.102936,104.564018 160.019806,106.125298 
	C157.827423,107.893295 156.269760,109.390572 154.712097,110.887856 
	C154.391403,110.873947 154.147278,111.003891 153.670837,111.607033 
	C153.208832,112.277351 153.055725,112.618347 152.902649,112.959351 
	C151.609451,115.072952 150.316254,117.186554 148.790466,119.913116 
	C148.217010,121.625038 147.876160,122.723999 147.535294,123.822952 
	C147.303909,124.654312 147.072540,125.485664 146.644684,126.973175 
	C146.523026,130.672501 146.597855,133.715698 146.672684,136.758881 
	C147.183395,139.050537 147.694107,141.342194 148.488831,144.119049 
	C148.772812,144.604263 149.076035,144.995178 149.076035,144.995178 
	C150.146301,146.902740 151.216568,148.810318 152.624374,151.159180 
	C153.246063,151.824219 153.530197,152.047958 153.814346,152.271683 
	C153.814346,152.271683 153.834152,152.180023 153.842819,152.428375 
	C153.851486,152.676712 154.229584,152.974411 154.229584,152.974411 
	C154.636353,153.592789 155.043121,154.211151 155.774979,155.215805 
	C156.389771,156.091492 156.679474,156.580887 156.943542,157.454132 
	C158.062958,160.137711 158.611877,163.408600 160.468872,164.548538 
	C165.336975,167.536804 170.775665,169.595505 176.225647,172.250214 
	C177.650955,172.971481 178.837585,173.467163 180.069122,174.334747 
	C180.085159,178.144684 180.056290,181.582718 180.023956,185.440399 
	C178.996048,190.212631 177.971619,194.565216 176.666779,199.105072 
	C174.241150,202.528076 172.095901,205.763794 169.613770,209.056580 
	C168.538788,210.132111 167.800720,211.150558 167.062622,212.169006 
	C166.616653,212.517090 166.170700,212.865189 165.265259,213.037201 
	C164.218185,213.265121 163.630600,213.669159 163.043030,214.073181 
	C163.043030,214.073181 163.007599,214.007233 162.672165,214.017059 
	C161.224091,214.648941 160.111450,215.270996 158.998810,215.893036 
	C157.602249,216.607101 156.205688,217.321182 154.236649,218.126953 
	C153.393341,218.384384 153.175079,218.602676 153.009369,218.873535 
	C152.574936,218.924271 152.140503,218.975006 151.368866,219.053879 
	C150.768524,218.563553 150.505386,218.045090 150.199860,216.931137 
	C154.418304,212.738022 159.414551,209.714081 162.771271,205.411148 
	C168.084518,198.600143 169.215881,190.154617 166.230988,182.135788 
	C164.342346,177.062012 161.285248,171.320389 157.019440,168.487747 
	C150.297760,164.024307 147.218658,158.786026 146.943756,151.089874 
	C146.692215,144.047821 138.362701,136.058197 131.516830,134.925537 
	C123.909981,133.666962 116.434761,131.612717 108.902237,129.904877 
	C112.162666,127.468735 115.423096,125.032593 119.247421,122.297478 
	C127.875099,121.439812 130.072906,117.552383 126.338303,110.688004 
	C125.885590,109.855896 125.902306,108.431015 126.291435,107.537918 
	C127.804375,104.065536 126.313019,102.566223 123.051659,101.997749 
z"/>
<path fill="#F7F9E9" opacity="1.000000" stroke="none" 
	d="
M200.755447,181.841537 
	C195.426727,188.178406 190.215866,194.221664 184.852539,200.571335 
	C184.354675,201.026413 184.009308,201.175079 183.375153,200.991974 
	C183.057770,199.773453 183.029190,198.886719 183.315643,197.800659 
	C184.527847,194.837799 185.749557,192.128357 186.221649,189.294052 
	C186.614105,186.937790 186.761017,184.167999 185.876434,182.059845 
	C184.579636,178.969254 185.970795,177.500580 187.878799,175.684753 
	C189.721756,173.930786 191.303513,171.902374 193.342072,169.941208 
	C195.459427,168.932190 197.234695,167.976486 199.390900,167.015778 
	C203.034515,164.921829 206.264420,162.778122 209.586395,160.788132 
	C210.285980,160.369080 211.323486,160.514099 212.205276,160.399200 
	C208.427948,167.448776 204.650635,174.498337 200.755447,181.841537 
z"/>
<path fill="#182F21" opacity="1.000000" stroke="none" 
	d="
M156.969193,157.070282 
	C156.679474,156.580887 156.389771,156.091492 156.037384,155.319916 
	C157.084045,154.439255 158.193390,153.840744 158.195740,153.839478 
	C156.750473,149.207489 155.415756,144.929840 154.154572,140.216537 
	C162.056854,159.030258 176.961182,162.647369 191.670853,158.378891 
	C195.301529,157.325333 198.450333,154.514297 201.718826,152.356873 
	C203.037857,151.486221 204.083618,150.201569 205.565216,148.965607 
	C206.240189,150.244049 206.603699,151.662186 206.659729,153.602997 
	C203.255920,157.089600 200.159576,160.053558 196.678238,163.051651 
	C191.872437,164.112061 187.451630,165.138321 182.589935,166.101746 
	C172.485397,166.615997 164.487244,162.517090 156.969193,157.070282 
z"/>
<path fill="#DCDCCE" opacity="1.000000" stroke="none" 
	d="
M180.445129,102.077942 
	C179.779724,92.577431 179.559647,83.171974 179.176422,73.142776 
	C179.013260,72.519020 178.985107,72.037018 178.985107,72.037018 
	C186.902496,71.166595 185.263641,70.039345 187.981186,78.981293 
	C188.255356,80.023865 188.430511,80.398865 188.605667,80.773865 
	C188.839966,83.564140 189.074265,86.354408 189.415070,89.567436 
	C189.380096,93.692574 189.238632,97.394951 189.082916,101.560242 
	C186.342575,102.073105 183.616501,102.123062 180.445129,102.077942 
z"/>
<path fill="#1A3129" opacity="1.000000" stroke="none" 
	d="
M208.418304,143.912598 
	C208.450378,138.719971 207.033585,135.165909 200.693985,135.606079 
	C199.696350,135.675354 198.575775,133.974182 197.512024,133.091614 
	C198.484436,131.992889 199.253281,130.465485 200.472504,129.886520 
	C202.855240,128.755051 205.497528,128.177048 208.018127,127.327667 
	C214.314011,125.206108 218.083084,120.066162 218.355209,113.539597 
	C218.476425,110.631958 217.346924,109.102928 214.381012,109.109779 
	C209.720810,109.120537 205.060608,109.144241 200.400452,109.170113 
	C193.260300,109.209755 186.097900,108.926086 178.987320,109.406670 
	C173.582275,109.771988 168.243164,111.112480 162.497162,112.096466 
	C164.773788,110.632790 167.371811,107.883354 170.091751,107.756912 
	C182.825836,107.164948 195.593430,107.225815 208.349167,107.217567 
	C211.470428,107.215546 214.664841,107.545219 217.676880,108.309006 
	C218.841843,108.604408 220.428375,110.547043 220.402176,111.707130 
	C220.190491,121.073456 216.154144,126.856918 207.394806,129.388092 
	C204.994934,130.081573 202.730225,131.242813 200.701401,132.068207 
	C204.088440,134.232773 207.333145,135.789627 209.774078,138.170517 
	C210.540085,138.917694 209.144531,141.880966 208.418304,143.912598 
z"/>
<path fill="#EAEBD5" opacity="1.000000" stroke="none" 
	d="
M197.063232,163.017517 
	C200.159576,160.053558 203.255920,157.089600 206.671692,153.970428 
	C209.514130,153.519836 212.037125,153.224442 215.190079,152.855301 
	C214.216965,155.660950 213.482895,157.777405 212.477051,160.146530 
	C211.323486,160.514099 210.285980,160.369080 209.586395,160.788132 
	C206.264420,162.778122 203.034515,164.921829 199.488098,166.735474 
	C198.490662,165.312622 197.776947,164.165070 197.063232,163.017517 
z"/>
<path fill="#182F21" opacity="1.000000" stroke="none" 
	d="
M153.561371,125.136200 
	C154.058319,129.666000 154.180099,134.315094 154.314880,139.373322 
	C153.641632,139.421356 152.348358,139.037445 152.360931,138.702606 
	C152.529556,134.216232 152.880539,129.736725 153.561371,125.136200 
z"/>
<path fill="#1A3129" opacity="1.000000" stroke="none" 
	d="
M146.797424,136.318726 
	C146.597855,133.715698 146.523026,130.672501 146.683136,127.301636 
	C146.919434,129.942154 146.920792,132.910355 146.797424,136.318726 
z"/>
<path fill="#1A3129" opacity="1.000000" stroke="none" 
	d="
M155.093643,110.905624 
	C156.269760,109.390572 157.827423,107.893295 159.697327,106.315659 
	C158.498108,107.797997 156.986649,109.360687 155.093643,110.905624 
z"/>
<path fill="#1A3129" opacity="1.000000" stroke="none" 
	d="
M147.907684,123.855019 
	C147.876160,122.723999 148.217010,121.625038 148.786469,120.264725 
	C149.579010,120.906715 150.142975,121.810066 150.706955,122.713409 
	C149.897995,123.104637 149.089035,123.495865 147.907684,123.855019 
z"/>
<path fill="#1A3129" opacity="1.000000" stroke="none" 
	d="
M156.816925,117.204422 
	C156.397476,119.184196 155.577271,121.166466 154.493988,123.411011 
	C154.959335,121.517822 155.687744,119.362366 156.816925,117.204422 
z"/>
<path fill="#1A3129" opacity="1.000000" stroke="none" 
	d="
M152.478424,116.511543 
	C152.465073,116.482269 152.491791,116.540817 152.478424,116.511543 
z"/>
<path fill="#1A3129" opacity="1.000000" stroke="none" 
	d="
M157.930054,116.197830 
	C158.007523,116.403519 157.843597,116.726585 157.413254,117.133759 
	C157.327454,116.916977 157.508057,116.616089 157.930054,116.197830 
z"/>
<path fill="#1A3129" opacity="1.000000" stroke="none" 
	d="
M159.830139,114.144867 
	C159.884949,114.325386 159.718872,114.625519 159.298569,115.002991 
	C159.232651,114.808380 159.420944,114.536423 159.830139,114.144867 
z"/>
<path fill="#1A3129" opacity="1.000000" stroke="none" 
	d="
M160.857269,113.150291 
	C160.901581,113.328766 160.718140,113.616081 160.280212,113.977585 
	C160.226990,113.787567 160.428253,113.523346 160.857269,113.150291 
z"/>
<path fill="#1A3129" opacity="1.000000" stroke="none" 
	d="
M161.932007,112.184052 
	C161.975082,112.377884 161.772919,112.666313 161.305237,113.020004 
	C161.255402,112.816376 161.471069,112.547508 161.932007,112.184052 
z"/>
<path fill="#1A3129" opacity="1.000000" stroke="none" 
	d="
M153.130981,112.805244 
	C153.055725,112.618347 153.208832,112.277351 153.625214,111.818390 
	C153.712097,112.017334 153.535721,112.334236 153.130981,112.805244 
z"/>
<path fill="#1A3129" opacity="1.000000" stroke="none" 
	d="
M149.184662,144.866760 
	C149.076035,144.995178 148.772812,144.604263 148.751434,144.357910 
	C148.917786,144.320511 149.105530,144.529434 149.184662,144.866760 
z"/>
<path fill="#182F21" opacity="1.000000" stroke="none" 
	d="
M153.729156,152.015686 
	C153.530197,152.047958 153.246063,151.824219 152.909134,151.323959 
	C153.118896,151.284851 153.381424,151.522263 153.729156,152.015686 
z"/>
<path fill="#182F21" opacity="1.000000" stroke="none" 
	d="
M154.309601,152.836273 
	C154.229584,152.974411 153.851486,152.676712 153.797974,152.442108 
	C154.142670,152.174149 154.357712,152.337692 154.309601,152.836273 
z"/>
<path fill="#1A3129" opacity="1.000000" stroke="none" 
	d="
M158.852722,115.168991 
	C158.919006,115.355965 158.757401,115.669334 158.340622,116.076645 
	C158.265228,115.878860 158.445038,115.587128 158.852722,115.168991 
z"/>
<path fill="#F7F9EE" opacity="1.000000" stroke="none" 
	d="
M122.894592,28.030872 
	C126.590141,28.273012 129.889359,28.602652 133.595001,28.872517 
	C149.684235,31.483288 163.511993,37.777100 174.275528,49.810501 
	C176.240158,52.006920 177.584900,54.757812 178.993484,57.646618 
	C178.501678,60.297512 178.232162,62.554531 177.962646,64.811554 
	C174.582184,64.695473 171.201736,64.579399 167.501083,63.808098 
	C164.129501,51.236187 155.615845,43.881359 142.614212,42.146339 
	C141.514572,42.101299 140.775406,42.151405 139.711487,42.139023 
	C138.561707,42.303177 137.736725,42.529819 136.662323,42.721115 
	C136.274826,42.781311 136.136719,42.876854 135.644104,42.943810 
	C134.180496,43.243515 133.071350,43.571804 131.602768,43.885921 
	C129.442993,44.894596 127.642670,45.917446 125.554779,46.993641 
	C124.844528,47.444691 124.421860,47.842392 123.703110,48.328644 
	C122.303329,49.619411 121.199623,50.821625 119.850403,52.134193 
	C119.413528,52.540249 119.222191,52.835941 118.722504,53.280533 
	C117.139503,56.281513 115.864845,59.133598 114.577591,62.053780 
	C114.564995,62.121876 114.693825,62.172714 114.471283,62.417038 
	C114.226997,63.094677 114.205269,63.527996 114.043289,64.242996 
	C113.597397,64.796730 113.291748,65.068771 112.585480,65.198029 
	C105.478561,64.987106 98.772270,64.918976 92.065971,64.850845 
	C90.851891,56.726036 87.329788,51.690651 77.851944,44.692490 
	C91.102966,34.542267 105.775734,28.612631 122.894592,28.030872 
z"/>
<path fill="#F2F6F0" opacity="1.000000" stroke="none" 
	d="
M67.994133,90.041687 
	C64.144447,89.480919 60.265625,89.058739 56.466030,88.259766 
	C55.541862,88.065422 54.878277,86.631897 54.174690,85.005981 
	C55.751492,78.478500 57.248470,72.713196 58.745453,66.947899 
	C62.662334,61.060452 66.579208,55.173004 70.373604,49.469654 
	C82.472893,54.287880 87.875908,64.613380 84.222031,75.623856 
	C82.033524,72.049934 80.076820,70.360741 76.752159,74.055748 
	C76.192741,74.677475 74.985062,74.715897 74.256073,74.687149 
	C77.036049,70.884003 77.586250,67.422409 73.948883,64.361061 
	C70.851295,61.754025 66.518791,62.334862 63.853554,65.456940 
	C60.972321,68.832031 61.530857,71.438271 65.712463,75.968590 
	C64.082138,76.140015 62.842628,76.297462 60.780334,76.559425 
	C65.759270,81.451416 59.903732,82.555740 58.286125,85.143242 
	C58.451286,85.674416 58.616444,86.205582 58.781605,86.736755 
	C64.308800,86.545357 69.835991,86.353958 75.152885,86.457832 
	C73.055656,87.775627 71.168716,88.798157 69.060471,89.726715 
	C68.496941,89.643944 68.215263,89.780258 67.994133,90.041687 
z"/>
<path fill="#F4F8F1" opacity="1.000000" stroke="none" 
	d="
M130.116180,94.946281 
	C128.559296,94.950157 126.770966,95.453354 125.490906,94.860016 
	C122.246704,93.356224 121.311203,94.856293 120.891296,98.041313 
	C118.870285,96.423721 116.891251,94.408409 114.510139,91.957199 
	C113.755775,91.304222 113.403503,91.087151 113.051224,90.870087 
	C113.051224,90.870087 113.054649,90.946022 112.994934,90.696785 
	C112.629013,90.359680 112.322807,90.271820 112.016609,90.183952 
	C111.324364,89.460365 110.632118,88.736786 109.458908,87.628525 
	C105.720169,85.739655 102.462387,84.235466 99.204605,82.731277 
	C99.204605,82.731277 99.096222,82.886162 98.913200,82.553879 
	C96.492081,81.826515 94.253975,81.431442 92.015877,81.036362 
	C88.238258,80.599792 91.545403,78.564766 91.468300,76.745056 
	C91.979164,72.596458 94.544838,71.208389 97.406227,71.156967 
	C102.602798,71.063591 107.810356,71.581642 113.022949,71.903397 
	C113.032570,71.962288 113.150444,71.944038 113.278282,72.301743 
	C113.840958,74.367912 114.275795,76.076393 114.635918,78.101585 
	C114.996521,79.369324 115.431831,80.320351 115.904541,81.612259 
	C119.084190,88.010521 124.077995,92.048058 130.116180,94.946281 
z"/>
<path fill="none" opacity="1.000000" stroke="none" 
	d="
M47.035667,82.075165 
	C38.782265,69.893387 44.401432,54.815376 59.768272,48.295349 
	C63.071072,48.938065 61.597786,50.333599 60.589058,51.962090 
	C58.296452,55.663254 56.196735,59.483898 53.748425,63.875763 
	C51.985626,69.546509 50.549862,74.615608 48.949005,79.632019 
	C48.654186,80.555847 47.690582,81.266251 47.035667,82.075165 
z"/>
<path fill="#FAFAEE" opacity="1.000000" stroke="none" 
	d="
M74.076904,75.023834 
	C74.985062,74.715897 76.192741,74.677475 76.752159,74.055748 
	C80.076820,70.360741 82.033524,72.049934 83.907654,75.845200 
	C84.146606,76.525078 84.115974,76.968483 83.773041,77.912903 
	C83.355774,78.746651 83.250801,79.079391 83.145828,79.412132 
	C82.765678,80.310974 82.385521,81.209816 81.653145,82.467880 
	C80.908936,82.900887 80.516945,82.974670 79.740440,83.039879 
	C78.233932,83.981262 77.111946,84.931221 75.863129,86.018036 
	C75.736290,86.154892 75.363182,86.162567 75.363182,86.162567 
	C69.835991,86.353958 64.308800,86.545357 58.781605,86.736755 
	C58.616444,86.205582 58.451286,85.674416 58.286125,85.143242 
	C59.903732,82.555740 65.759270,81.451416 60.780334,76.559425 
	C62.842628,76.297462 64.082138,76.140015 66.046539,76.005432 
	C67.848251,76.327171 68.925056,76.626045 70.060455,77.226707 
	C72.788231,80.006523 72.439362,77.189354 73.068985,75.673523 
	C73.474312,75.301674 73.775604,75.162758 74.076904,75.023834 
z"/>
<path fill="#132F30" opacity="1.000000" stroke="none" 
	d="
M113.013329,71.844505 
	C107.810356,71.581642 102.602798,71.063591 97.406227,71.156967 
	C94.544838,71.208389 91.979164,72.596458 91.478058,76.416969 
	C91.480080,73.049400 91.754898,69.397926 92.047844,65.298653 
	C98.772270,64.918976 105.478561,64.987106 112.520874,65.527443 
	C112.909035,67.947937 112.961182,69.896225 113.013329,71.844505 
z"/>
<path fill="#0D3D36" opacity="1.000000" stroke="none" 
	d="
M47.095539,82.439209 
	C47.690582,81.266251 48.654186,80.555847 48.949005,79.632019 
	C50.549862,74.615608 51.985626,69.546509 53.734055,64.245010 
	C55.441246,64.797386 56.892620,65.600304 58.544724,66.675560 
	C57.248470,72.713196 55.751492,78.478500 54.117363,84.625458 
	C51.705280,84.272499 49.430344,83.537880 47.095539,82.439209 
z"/>
<path fill="#1D352B" opacity="1.000000" stroke="none" 
	d="
M99.189438,83.088501 
	C102.462387,84.235466 105.720169,85.739655 109.157043,87.550034 
	C105.085808,89.767799 109.315613,92.059723 109.002426,94.608551 
	C108.951004,95.066910 108.768608,95.277718 108.494461,95.197121 
	C107.853455,95.031509 107.486595,94.946495 107.057312,94.922195 
	C106.994888,94.982903 107.122719,94.868851 107.012665,94.578903 
	C105.908943,93.575546 104.915268,92.862152 103.659775,91.890427 
	C101.309715,90.956009 99.221474,90.279930 97.133232,89.603844 
	C94.390228,89.021500 91.647224,88.439148 88.469193,87.836533 
	C91.244423,83.431587 95.103271,85.037628 99.374168,87.199715 
	C99.286766,85.558266 99.230515,84.501991 99.189438,83.088501 
z"/>
<path fill="#183B3F" opacity="1.000000" stroke="none" 
	d="
M67.917175,90.380753 
	C68.215263,89.780258 68.496941,89.643944 69.511703,89.764694 
	C72.455544,89.592583 74.726852,89.288506 76.998169,88.984436 
	C77.283897,89.880058 77.569626,90.775688 77.990936,92.000046 
	C73.348892,94.912971 68.571259,97.497147 63.433220,100.127312 
	C62.465851,95.914642 64.821968,93.150276 67.917175,90.380753 
z"/>
<path fill="#1D352B" opacity="1.000000" stroke="none" 
	d="
M76.996948,88.601616 
	C74.726852,89.288506 72.455544,89.592583 69.733002,89.858673 
	C71.168716,88.798157 73.055656,87.775627 75.152885,86.457832 
	C75.363182,86.162567 75.736290,86.154892 76.106995,86.044350 
	C76.477707,85.933807 76.967926,85.920517 76.967926,85.920517 
	C76.977188,86.686607 76.986458,87.452705 76.996948,88.601616 
z"/>
<path fill="#1D352B" opacity="1.000000" stroke="none" 
	d="
M92.222725,81.354172 
	C94.253975,81.431442 96.492081,81.826515 98.987549,82.495506 
	C96.973129,82.403610 94.701355,82.037788 92.222725,81.354172 
z"/>
<path fill="#F2F6F0" opacity="1.000000" stroke="none" 
	d="
M77.058563,85.702049 
	C76.967926,85.920517 76.477707,85.933807 76.233833,85.907494 
	C77.111946,84.931221 78.233932,83.981262 79.623039,83.346436 
	C79.240005,84.101295 78.589844,84.541016 77.939690,84.980743 
	C77.629318,85.074669 77.365829,85.242279 77.058563,85.702049 
z"/>
<path fill="#1D352B" opacity="1.000000" stroke="none" 
	d="
M78.327972,84.984055 
	C78.589844,84.541016 79.240005,84.101295 80.007561,83.355011 
	C80.516945,82.974670 80.908936,82.900887 81.592766,82.760223 
	C80.828484,83.458023 79.772362,84.222702 78.327972,84.984055 
z"/>
<path fill="#F2F6F0" opacity="1.000000" stroke="none" 
	d="
M83.382141,79.256577 
	C83.250801,79.079391 83.355774,78.746651 83.638290,78.217834 
	C83.750031,78.381500 83.684242,78.741264 83.382141,79.256577 
z"/>
<path fill="#F8FBF7" opacity="1.000000" stroke="none" 
	d="
M173.579712,72.043655 
	C174.388351,74.117813 174.776611,76.107300 175.164871,78.096779 
	C175.641953,78.059288 176.119049,78.021797 176.596130,77.984306 
	C175.175491,82.514198 173.529312,86.992432 172.472565,91.605675 
	C172.158325,92.977539 173.499268,94.728561 174.210922,96.655472 
	C166.918732,96.220665 159.698105,95.790123 152.412888,94.814117 
	C155.971817,90.641548 159.595337,87.014435 163.509155,83.180161 
	C165.206879,79.335686 166.614273,75.698380 168.021667,72.061081 
	C169.734238,72.027046 171.446808,71.993011 173.579712,72.043655 
z"/>
<path fill="#113033" opacity="1.000000" stroke="none" 
	d="
M136.911728,42.756462 
	C137.736725,42.529819 138.561707,42.303177 139.919037,42.323555 
	C141.292496,42.460876 142.133591,42.351177 142.974701,42.241486 
	C155.615845,43.881359 164.129501,51.236187 167.196472,63.534828 
	C167.004074,63.928379 166.796097,63.939968 166.181000,63.834133 
	C165.448212,63.549000 165.193130,63.641338 165.008636,63.993721 
	C164.840485,63.994850 164.672333,63.995983 164.163834,63.661522 
	C162.588058,62.882290 161.352646,62.438652 159.907410,61.718838 
	C153.486877,50.147099 147.793137,47.278973 134.674362,49.005089 
	C130.257324,48.803883 131.625534,46.113873 131.962219,43.900097 
	C133.071350,43.571804 134.180496,43.243515 135.757843,43.069641 
	C136.454620,43.068192 136.683167,42.912327 136.911728,42.756462 
z"/>
<path fill="#173A38" opacity="1.000000" stroke="none" 
	d="
M160.117218,61.995014 
	C161.352646,62.438652 162.588058,62.882290 163.911591,63.662296 
	C164.691574,65.295021 165.371765,66.597786 166.078812,67.885811 
	C166.706039,69.028503 167.363098,70.154823 168.014343,71.674721 
	C166.614273,75.698380 165.206879,79.335686 163.337311,82.852623 
	C161.960968,80.823792 161.046799,78.915337 160.138535,76.591370 
	C160.135361,71.448914 160.126282,66.721962 160.117218,61.995014 
z"/>
<path fill="#D3D8D2" opacity="1.000000" stroke="none" 
	d="
M178.363800,64.876465 
	C178.232162,62.554531 178.501678,60.297512 179.154343,57.973114 
	C180.723175,59.982327 181.908859,62.058922 183.434494,64.730934 
	C181.458145,64.820007 180.111557,64.880699 178.363800,64.876465 
z"/>
<path fill="#173A38" opacity="1.000000" stroke="none" 
	d="
M165.247406,63.990170 
	C165.193130,63.641338 165.448212,63.549000 165.868774,63.845791 
	C165.963669,63.974876 165.486191,63.986618 165.247406,63.990170 
z"/>
<path fill="#183739" opacity="1.000000" stroke="none" 
	d="
M188.641693,80.458511 
	C188.430511,80.398865 188.255356,80.023865 188.119049,79.331039 
	C188.331161,79.389870 188.504440,79.766510 188.641693,80.458511 
z"/>
<path fill="#F8FBF7" opacity="1.000000" stroke="none" 
	d="
M178.738693,71.964851 
	C178.985107,72.037018 179.013260,72.519020 179.010223,72.760452 
	C178.718521,72.875671 178.471558,72.693062 178.137955,72.261002 
	C178.170502,72.009529 178.331390,71.951103 178.738693,71.964851 
z"/>
<path fill="#173A38" opacity="1.000000" stroke="none" 
	d="
M176.879059,71.596054 
	C176.823303,71.769073 176.663727,71.829575 176.257767,71.820694 
	C176.199600,71.443489 176.454208,71.354240 176.879059,71.596054 
z"/>
<path fill="#153A3A" opacity="1.000000" stroke="none" 
	d="
M55.517632,95.533669 
	C55.482628,95.551765 55.552635,95.515572 55.517632,95.533669 
z"/>
<path fill="#EBEADA" opacity="1.000000" stroke="none" 
	d="
M183.000610,198.000000 
	C183.029190,198.886719 183.057770,199.773453 183.110153,201.103271 
	C181.739594,202.650513 180.345245,203.754669 178.564545,204.494598 
	C177.767853,202.392838 177.357529,200.655304 176.947189,198.917786 
	C177.971619,194.565216 178.996048,190.212631 180.395477,185.447113 
	C183.513000,185.379776 184.046906,186.519241 183.280731,189.350677 
	C182.547455,192.060638 183.044388,195.103470 183.000610,198.000000 
z"/>
<path fill="#DADFCD" opacity="1.000000" stroke="none" 
	d="
M176.666779,199.105072 
	C177.357529,200.655304 177.767853,202.392838 178.234116,204.594574 
	C175.731445,206.905014 173.172836,208.751236 170.269562,210.377213 
	C169.933487,209.771149 169.942078,209.385330 169.950653,208.999512 
	C172.095901,205.763794 174.241150,202.528076 176.666779,199.105072 
z"/>
<path fill="#F7FAF1" opacity="1.000000" stroke="none" 
	d="
M169.613770,209.056580 
	C169.942078,209.385330 169.933487,209.771149 169.938934,210.446411 
	C169.206909,211.184555 168.460861,211.633270 167.388718,212.125504 
	C167.800720,211.150558 168.538788,210.132111 169.613770,209.056580 
z"/>
<path fill="#F7FAF1" opacity="1.000000" stroke="none" 
	d="
M159.328583,216.008499 
	C160.111450,215.270996 161.224091,214.648941 162.704437,214.036026 
	C161.934235,214.738083 160.796295,215.431015 159.328583,216.008499 
z"/>
<path fill="#F7FAF1" opacity="1.000000" stroke="none" 
	d="
M163.335510,214.028046 
	C163.630600,213.669159 164.218185,213.265121 164.976242,213.096161 
	C164.640488,213.548431 164.134232,213.765671 163.335510,214.028046 
z"/>
<path fill="#F7FAF1" opacity="1.000000" stroke="none" 
	d="
M153.272675,218.884949 
	C153.175079,218.602676 153.393341,218.384384 153.877075,218.123383 
	C153.905334,218.317551 153.720657,218.606964 153.272675,218.884949 
z"/>
<path fill="#495E58" opacity="1.000000" stroke="none" 
	d="
M161.253876,229.300079 
	C161.780624,229.072708 162.505478,229.049164 163.591949,229.053589 
	C163.119705,229.222351 162.285843,229.363129 161.253876,229.300079 
z"/>
<path fill="#152F2C" opacity="1.000000" stroke="none" 
	d="
M192.488068,195.480591 
	C192.516556,195.467667 192.459564,195.493515 192.488068,195.480591 
z"/>
<path fill="#152F2C" opacity="1.000000" stroke="none" 
	d="
M142.216324,222.959167 
	C142.685287,222.598221 143.493729,222.244308 144.651611,221.984344 
	C144.185959,222.374283 143.370895,222.670242 142.216324,222.959167 
z"/>
<path fill="#152F2C" opacity="1.000000" stroke="none" 
	d="
M146.062042,221.853394 
	C146.039978,221.643784 146.244034,221.347107 146.722855,221.084442 
	C146.817764,221.396408 146.581284,221.612381 146.062042,221.853394 
z"/>
<path fill="#FFFFFE" opacity="1.000000" stroke="none" 
	d="
M108.506393,129.941010 
	C116.434761,131.612717 123.909981,133.666962 131.516830,134.925537 
	C138.362701,136.058197 146.692215,144.047821 146.943756,151.089874 
	C147.218658,158.786026 150.297760,164.024307 157.019440,168.487747 
	C161.285248,171.320389 164.342346,177.062012 166.230988,182.135788 
	C169.215881,190.154617 168.084518,198.600143 162.771271,205.411148 
	C159.414551,209.714081 154.418304,212.738022 150.077515,216.667206 
	C137.788361,216.319824 125.448883,216.481735 113.423141,214.618637 
	C107.104515,213.639740 101.053566,209.557297 95.454498,205.979889 
	C93.182762,204.528412 92.225677,200.778305 91.042679,197.920044 
	C89.247246,193.582123 85.723137,192.758026 81.599274,191.827759 
	C76.515938,190.681076 70.754318,189.476364 67.008888,186.278564 
	C62.804871,182.689270 59.225060,177.525894 58.966309,171.182770 
	C58.892792,169.380539 58.419147,167.594666 58.061707,165.401550 
	C58.901707,162.053528 60.295670,159.158783 60.627110,156.147110 
	C61.719765,146.218582 68.638252,141.110733 76.169113,136.359482 
	C76.827194,135.944305 77.296295,135.229568 77.924454,134.318497 
	C88.034012,132.647720 98.072281,131.312424 108.506393,129.941010 
z"/>
<path fill="#F4F8F1" opacity="1.000000" stroke="none" 
	d="
M123.060371,102.409615 
	C126.313019,102.566223 127.804375,104.065536 126.291435,107.537918 
	C125.902306,108.431015 125.885590,109.855896 126.338303,110.688004 
	C130.072906,117.552383 127.875099,121.439812 119.408821,121.998886 
	C118.742386,121.769844 118.478455,121.540421 118.111771,120.883606 
	C118.009026,120.456200 118.124069,120.057243 118.124069,120.057243 
	C118.124069,120.057243 118.046524,120.044426 118.321198,120.006157 
	C118.832832,119.686081 119.069786,119.404266 119.306732,119.122452 
	C123.460480,114.358047 125.728973,109.158508 123.060371,102.409615 
z"/>
<path fill="#1D352B" opacity="1.000000" stroke="none" 
	d="
M117.898254,120.157745 
	C118.124069,120.057243 118.009026,120.456200 117.970337,120.660187 
	C117.931641,120.864182 117.465179,120.962891 117.226822,120.960815 
	C117.154373,120.664619 117.382362,120.431122 117.898254,120.157745 
z"/>
<path fill="#F5C805" opacity="1.000000" stroke="none" 
	d="
M74.982101,100.074303 
	C75.288780,99.896217 75.595459,99.718132 76.542526,99.621902 
	C78.443214,99.456940 79.703506,99.210106 80.976112,99.380936 
	C79.821716,102.911469 78.054329,105.943275 77.620903,109.155098 
	C76.860359,114.790985 73.534149,115.196915 68.930092,115.141098 
	C65.921532,115.104630 62.896564,116.421669 59.439228,117.117897 
	C55.529564,116.793587 52.059616,116.483826 47.939690,116.116035 
	C49.296944,114.018028 50.044529,112.862427 50.792114,111.706833 
	C50.792114,111.706833 50.957657,111.782555 51.247173,111.835732 
	C53.297997,110.811623 55.059303,109.734337 56.820606,108.657043 
	C57.971725,108.110893 59.122845,107.564743 60.971245,107.025497 
	C63.034618,106.247704 64.400711,105.463005 65.766800,104.678307 
	C65.766800,104.678307 65.965416,104.763901 66.122330,104.745552 
	C66.512505,104.485321 66.745750,104.243439 66.978996,104.001556 
	C66.978996,104.001556 67.275948,103.779137 67.820557,103.834366 
	C69.243614,103.301521 70.122078,102.713455 71.000542,102.125389 
	C71.000542,102.125389 71.325981,101.870338 71.881561,101.884430 
	C73.285461,101.290451 74.133781,100.682373 74.982101,100.074303 
z"/>
<path fill="#F0CA0F" opacity="1.000000" stroke="none" 
	d="
M96.778931,89.812088 
	C99.221474,90.279930 101.309715,90.956009 103.619278,92.112427 
	C103.840599,92.592758 103.746002,93.033951 103.391357,93.023422 
	C99.667923,92.871918 95.705681,91.507156 94.788040,96.902863 
	C94.555511,96.905495 94.090988,96.882477 93.948029,96.701660 
	C93.600128,96.289749 93.371338,96.085312 92.829407,95.671028 
	C90.687576,94.671150 88.835075,93.907791 86.982567,93.144432 
	C90.129921,92.103065 93.277275,91.061699 96.778931,89.812088 
z"/>
<path fill="#E1C63F" opacity="1.000000" stroke="none" 
	d="
M50.436676,111.728973 
	C50.044529,112.862427 49.296944,114.018028 47.939690,116.116035 
	C52.059616,116.483826 55.529564,116.793587 59.466812,117.299667 
	C59.934109,117.495972 59.999527,117.859673 59.723457,117.901306 
	C58.940437,118.156387 58.433491,118.369843 57.926544,118.583290 
	C57.179512,118.556641 56.432480,118.529984 55.071106,118.259727 
	C53.882675,118.013481 53.308586,118.010849 52.734501,118.008209 
	C50.227901,117.228905 47.721298,116.449593 44.981476,115.393524 
	C46.525917,113.994888 48.303577,112.873001 50.436676,111.728973 
z"/>
<path fill="#E1C63F" opacity="1.000000" stroke="none" 
	d="
M86.660782,93.188530 
	C88.835075,93.907791 90.687576,94.671150 92.803040,95.689178 
	C93.065994,95.943840 93.012543,95.979042 92.629974,95.933563 
	C90.423347,96.457489 88.599289,97.026901 86.787308,97.620789 
	C86.799385,97.645256 86.805534,97.610886 86.468399,97.598038 
	C85.147919,98.086502 84.164558,98.587807 83.089142,99.046707 
	C82.997086,99.004303 82.813316,98.918732 82.840019,98.650291 
	C82.591866,97.951332 82.317017,97.520813 81.927094,96.937538 
	C81.812019,96.784790 81.573669,96.485649 81.573669,96.485649 
	C83.162117,95.401306 84.750557,94.316971 86.660782,93.188530 
z"/>
<path fill="#E1C63F" opacity="1.000000" stroke="none" 
	d="
M80.963791,98.963272 
	C79.703506,99.210106 78.443214,99.456940 76.806854,99.581131 
	C77.933701,98.536423 79.436615,97.614342 81.256607,96.588959 
	C81.573669,96.485649 81.812019,96.784790 81.784424,97.166351 
	C81.496246,98.021782 81.235672,98.495651 80.979385,98.977547 
	C80.983673,98.985573 80.963791,98.963280 80.963791,98.963272 
z"/>
<path fill="#E1C63F" opacity="1.000000" stroke="none" 
	d="
M56.468060,108.676666 
	C55.059303,109.734337 53.297997,110.811623 51.165771,111.806442 
	C52.568405,110.714745 54.341957,109.705513 56.468060,108.676666 
z"/>
<path fill="#E1C63F" opacity="1.000000" stroke="none" 
	d="
M65.422775,104.691071 
	C64.400711,105.463005 63.034618,106.247704 61.290573,106.979439 
	C62.301331,106.185593 63.690041,105.444710 65.422775,104.691071 
z"/>
<path fill="#E1C63F" opacity="1.000000" stroke="none" 
	d="
M70.679993,102.102440 
	C70.122078,102.713455 69.243614,103.301521 68.003494,103.803589 
	C68.547699,103.171547 69.453575,102.625519 70.679993,102.102440 
z"/>
<path fill="#E1C63F" opacity="1.000000" stroke="none" 
	d="
M74.659538,100.040894 
	C74.133781,100.682373 73.285461,101.290451 72.079544,101.824875 
	C72.593620,101.169983 73.465302,100.588737 74.659538,100.040894 
z"/>
<path fill="#E1C63F" opacity="1.000000" stroke="none" 
	d="
M66.718445,104.002884 
	C66.745750,104.243439 66.512505,104.485321 66.016312,104.724319 
	C65.988205,104.482368 66.223045,104.243294 66.718445,104.002884 
z"/>
<path fill="#CD9714" opacity="1.000000" stroke="none" 
	d="
M109.285744,118.156128 
	C100.152626,118.443916 91.236931,118.681465 82.320007,118.855583 
	C79.161049,118.917267 75.999077,118.824371 72.560356,118.345871 
	C74.694336,117.614334 77.115562,117.401672 79.516922,117.052429 
	C88.455048,115.752541 97.462151,114.773033 106.293358,112.947556 
	C111.897842,111.789062 112.770226,109.362045 111.507103,103.772011 
	C111.039764,101.703781 110.819847,99.579643 110.807297,97.599396 
	C120.062218,106.181519 119.683388,112.712372 109.951866,117.985283 
	C109.951866,117.985283 109.502686,118.080894 109.285744,118.156128 
z"/>
<path fill="#1D352B" opacity="1.000000" stroke="none" 
	d="
M110.355759,117.999359 
	C119.683388,112.712372 120.062218,106.181519 110.790970,97.556549 
	C110.454422,97.395309 110.363701,97.381874 110.263321,97.136887 
	C109.698166,96.353836 109.233391,95.815781 108.768608,95.277718 
	C108.768608,95.277718 108.951004,95.066910 109.043259,94.960220 
	C116.458107,97.053894 121.528107,106.625130 118.578278,113.241837 
	C117.184135,116.368996 114.630943,118.499832 110.355759,117.999359 
z"/>
<path fill="#0E2C2C" opacity="1.000000" stroke="none" 
	d="
M101.033997,120.300079 
	C101.426949,120.022484 101.881828,120.016930 102.677963,120.017113 
	C102.378128,120.205940 101.737038,120.389023 101.033997,120.300079 
z"/>
<path fill="#1D352B" opacity="1.000000" stroke="none" 
	d="
M113.213051,91.129776 
	C113.403503,91.087151 113.755775,91.304222 114.234138,91.820175 
	C114.031776,91.875862 113.703331,91.632660 113.213051,91.129776 
z"/>
<path fill="#1D352B" opacity="1.000000" stroke="none" 
	d="
M112.168594,90.353638 
	C112.322807,90.271820 112.629013,90.359680 113.032135,90.689056 
	C112.827499,90.858475 112.557999,90.722733 112.168594,90.353638 
z"/>
<path fill="#1D352B" opacity="1.000000" stroke="none" 
	d="
M119.048645,119.222580 
	C119.069786,119.404266 118.832832,119.686081 118.319077,120.045403 
	C118.291702,119.856186 118.541122,119.589447 119.048645,119.222580 
z"/>
<path fill="#F8BB05" opacity="1.000000" stroke="none" 
	d="
M110.470757,97.438156 
	C110.819847,99.579643 111.039764,101.703781 111.507103,103.772011 
	C112.770226,109.362045 111.897842,111.789062 106.293358,112.947556 
	C97.462151,114.773033 88.455048,115.752541 79.516922,117.052429 
	C77.115562,117.401672 74.694336,117.614334 72.102432,118.220444 
	C70.549545,118.611679 69.176453,118.672180 67.068985,118.475075 
	C64.222908,118.098206 62.111217,117.978943 59.999527,117.859673 
	C59.999527,117.859673 59.934109,117.495972 59.906525,117.314209 
	C62.896564,116.421669 65.921532,115.104630 68.930092,115.141098 
	C73.534149,115.196915 76.860359,114.790985 77.620903,109.155098 
	C78.054329,105.943275 79.821716,102.911469 80.976112,99.380936 
	C80.963791,98.963280 80.983673,98.985573 81.287247,98.983940 
	C81.998314,98.961113 82.405815,98.939926 82.813316,98.918732 
	C82.813316,98.918732 82.997086,99.004303 83.039551,99.429016 
	C84.190781,101.408646 85.014015,103.817543 86.478897,104.307335 
	C88.411179,104.953407 90.847000,104.093506 93.267685,103.759628 
	C93.704277,103.409805 93.850021,103.133980 93.826996,102.820602 
	C93.747749,102.830421 93.670067,102.690872 94.022476,102.620499 
	C94.590118,100.666832 94.805344,98.783531 95.020569,96.900230 
	C95.705681,91.507156 99.667923,92.871918 103.560982,93.336800 
	C105.097748,94.063416 106.110229,94.466133 107.122719,94.868851 
	C107.122719,94.868851 106.994888,94.982903 107.062286,95.289230 
	C108.207687,96.191002 109.285698,96.786438 110.363701,97.381874 
	C110.363701,97.381874 110.454422,97.395309 110.470757,97.438156 
z"/>
<path fill="#CD9714" opacity="1.000000" stroke="none" 
	d="
M59.723457,117.901306 
	C62.111217,117.978943 64.222908,118.098206 66.659103,118.421516 
	C64.259056,118.702126 61.534496,118.778694 58.368240,118.719276 
	C58.433491,118.369843 58.940437,118.156387 59.723457,117.901306 
z"/>
<path fill="#CD9714" opacity="1.000000" stroke="none" 
	d="
M52.989254,118.167740 
	C53.308586,118.010849 53.882675,118.013481 54.712307,118.150322 
	C54.393238,118.298767 53.818623,118.313019 52.989254,118.167740 
z"/>
<path fill="#0E2D2E" opacity="1.000000" stroke="none" 
	d="
M160.132629,77.006889 
	C161.046799,78.915337 161.960968,80.823792 163.046997,83.059784 
	C159.595337,87.014435 155.971817,90.641548 152.135498,94.526665 
	C144.932724,96.651634 137.933289,97.454994 130.510391,94.959045 
	C124.077995,92.048058 119.084190,88.010521 116.120483,81.318741 
	C117.596474,78.641418 118.893913,76.598488 120.436028,74.798477 
	C121.332626,76.474747 121.984543,77.908081 122.690643,79.196838 
	C122.744827,79.052261 122.621178,79.343773 122.716507,79.675781 
	C126.042313,86.072525 131.743362,88.212891 138.189758,89.666138 
	C138.948181,89.774109 139.472366,89.757332 140.392181,89.827118 
	C142.088287,89.701576 143.388794,89.489487 144.922668,89.328812 
	C145.485657,89.337959 145.766785,89.198235 146.295746,89.004745 
	C147.116531,88.818565 147.641037,88.588676 148.498169,88.303566 
	C149.600571,87.853951 150.370346,87.459557 151.423981,87.046768 
	C152.130890,86.681572 152.553925,86.334778 153.316467,85.912430 
	C155.814835,82.893547 157.973740,79.950218 160.132629,77.006889 
z"/>
<path fill="#DCDACD" opacity="1.000000" stroke="none" 
	d="
M156.943542,157.454132 
	C164.487244,162.517090 172.485397,166.615997 182.728195,166.395630 
	C182.225861,168.151077 181.348587,169.812866 179.996201,170.862534 
	C178.974564,171.655472 177.345627,171.665939 175.986969,172.024658 
	C170.775665,169.595505 165.336975,167.536804 160.468872,164.548538 
	C158.611877,163.408600 158.062958,160.137711 156.943542,157.454132 
z"/>
<path fill="#F5F3E3" opacity="1.000000" stroke="none" 
	d="
M183.315643,197.800659 
	C183.044388,195.103470 182.547455,192.060638 183.280731,189.350677 
	C184.046906,186.519241 183.513000,185.379776 180.398956,185.027466 
	C180.056290,181.582718 180.085159,178.144684 180.448029,174.344177 
	C185.916626,175.906693 188.906387,171.259323 193.000000,169.994507 
	C191.303513,171.902374 189.721756,173.930786 187.878799,175.684753 
	C185.970795,177.500580 184.579636,178.969254 185.876434,182.059845 
	C186.761017,184.167999 186.614105,186.937790 186.221649,189.294052 
	C185.749557,192.128357 184.527847,194.837799 183.315643,197.800659 
z"/>
<path fill="#E3E1CD" opacity="1.000000" stroke="none" 
	d="
M193.342072,169.941208 
	C188.906387,171.259323 185.916626,175.906693 180.403137,173.972275 
	C178.837585,173.467163 177.650955,172.971481 176.225647,172.250214 
	C177.345627,171.665939 178.974564,171.655472 179.996201,170.862534 
	C181.348587,169.812866 182.225861,168.151077 183.169067,166.458481 
	C187.451630,165.138321 191.872437,164.112061 196.678238,163.051651 
	C197.776947,164.165070 198.490662,165.312622 199.107178,166.740463 
	C197.234695,167.976486 195.459427,168.932190 193.342072,169.941208 
z"/>
<path fill="#0F3536" opacity="1.000000" stroke="none" 
	d="
M120.191360,74.555557 
	C118.893913,76.598488 117.596474,78.641418 116.083084,80.977859 
	C115.431831,80.320351 114.996521,79.369324 114.710526,77.659752 
	C114.290039,75.248810 113.720245,73.596420 113.150452,71.944038 
	C113.150444,71.944038 113.032570,71.962288 113.022949,71.903397 
	C112.961182,69.896225 112.909035,67.947937 112.921494,65.670242 
	C113.291748,65.068771 113.597397,64.796730 114.219025,63.977737 
	C114.587936,63.011433 114.640877,62.592072 114.693825,62.172714 
	C114.693825,62.172714 114.564995,62.121876 114.988541,62.073967 
	C118.774902,62.431168 117.470078,64.752388 117.689957,66.790688 
	C117.955299,69.250336 119.219025,71.602280 120.170418,74.118057 
	C120.290215,74.235268 120.191360,74.555557 120.191360,74.555557 
z"/>
<path fill="#13332F" opacity="1.000000" stroke="none" 
	d="
M120.050621,74.000847 
	C119.219025,71.602280 117.955299,69.250336 117.689957,66.790688 
	C117.470078,64.752388 118.774902,62.431168 115.001137,62.005875 
	C115.864845,59.133598 117.139503,56.281513 118.739761,53.690392 
	C120.412949,55.075806 121.760536,56.200264 123.021980,57.722206 
	C119.532730,62.969872 118.995674,68.340744 120.050621,74.000847 
z"/>
<path fill="#13332F" opacity="1.000000" stroke="none" 
	d="
M131.602768,43.885921 
	C131.625534,46.113873 130.257324,48.803883 134.615326,49.157524 
	C134.918442,49.324909 134.877808,49.649475 134.509705,49.715736 
	C130.724091,51.977440 127.306587,54.172890 123.553452,56.169750 
	C122.177193,54.655392 121.136559,53.339615 120.095924,52.023838 
	C121.199623,50.821625 122.303329,49.619411 123.754913,48.633858 
	C124.933533,49.602226 125.670799,50.584362 126.646004,50.979988 
	C126.984947,51.117493 127.912811,49.803318 128.571701,49.152161 
	C127.661919,48.414867 126.752129,47.677582 125.842346,46.940296 
	C127.642670,45.917446 129.442993,44.894596 131.602768,43.885921 
z"/>
<path fill="#113033" opacity="1.000000" stroke="none" 
	d="
M125.554779,46.993641 
	C126.752129,47.677582 127.661919,48.414867 128.571701,49.152161 
	C127.912811,49.803318 126.984947,51.117493 126.646004,50.979988 
	C125.670799,50.584362 124.933533,49.602226 124.050995,48.545307 
	C124.421860,47.842392 124.844528,47.444691 125.554779,46.993641 
z"/>
<path fill="#113033" opacity="1.000000" stroke="none" 
	d="
M119.850403,52.134193 
	C121.136559,53.339615 122.177193,54.655392 123.517853,56.390831 
	C123.653618,57.081734 123.417030,57.253139 123.108124,57.324715 
	C121.760536,56.200264 120.412949,55.075806 119.048103,53.541496 
	C119.222191,52.835941 119.413528,52.540249 119.850403,52.134193 
z"/>
<path fill="#13332F" opacity="1.000000" stroke="none" 
	d="
M142.614212,42.146339 
	C142.133591,42.351177 141.292496,42.460876 140.243820,42.386040 
	C140.775406,42.151405 141.514572,42.101299 142.614212,42.146339 
z"/>
<path fill="#13332F" opacity="1.000000" stroke="none" 
	d="
M136.662323,42.721119 
	C136.683167,42.912327 136.454620,43.068192 136.112335,43.098221 
	C136.136719,42.876854 136.274826,42.781311 136.662323,42.721119 
z"/>
<path fill="#13332F" opacity="1.000000" stroke="none" 
	d="
M114.471283,62.417038 
	C114.640877,62.592072 114.587936,63.011433 114.359261,63.696053 
	C114.205269,63.527996 114.226997,63.094677 114.471283,62.417038 
z"/>
<path class="eye" fill="#172D2E" opacity="1.000000" stroke="none" 
	d="
M74.256073,74.687149 
	C73.775604,75.162758 73.474312,75.301674 72.756439,75.716698 
	C71.560524,76.303505 70.781197,76.614212 70.001862,76.924911 
	C68.925056,76.626045 67.848251,76.327171 66.437363,75.991455 
	C61.530857,71.438271 60.972321,68.832031 63.853554,65.456940 
	C66.518791,62.334862 70.851295,61.754025 73.948883,64.361061 
	C77.586250,67.422409 77.036049,70.884003 74.256073,74.687149 
z"/>
<path fill="#132F30" opacity="1.000000" stroke="none" 
	d="
M113.278290,72.301743 
	C113.720245,73.596420 114.290039,75.248810 114.785233,77.343033 
	C114.275795,76.076393 113.840958,74.367912 113.278290,72.301743 
z"/>
<path fill="#F2F6F0" opacity="1.000000" stroke="none" 
	d="
M70.060455,77.226715 
	C70.781197,76.614212 71.560524,76.303505 72.652405,75.949615 
	C72.439362,77.189354 72.788231,80.006523 70.060455,77.226715 
z"/>
<path fill="#CD9714" opacity="1.000000" stroke="none" 
	d="
M110.263321,97.136887 
	C109.285698,96.786438 108.207687,96.191002 107.124710,95.228523 
	C107.486595,94.946495 107.853455,95.031509 108.494461,95.197121 
	C109.233391,95.815781 109.698166,96.353836 110.263321,97.136887 
z"/>
<path fill="#CD9714" opacity="1.000000" stroke="none" 
	d="
M107.012665,94.578903 
	C106.110229,94.466133 105.097748,94.063416 103.915634,93.347321 
	C103.746002,93.033951 103.840599,92.592758 103.881096,92.370758 
	C104.915268,92.862152 105.908943,93.575546 107.012665,94.578903 
z"/>
<path fill="#F8F9EE" opacity="1.000000" stroke="none" 
	d="
M134.877808,49.649475 
	C134.877808,49.649475 134.918442,49.324909 134.977478,49.172478 
	C147.793137,47.278973 153.486877,50.147099 159.907410,61.718838 
	C160.126282,66.721962 160.135361,71.448914 160.138535,76.591370 
	C157.973740,79.950218 155.814835,82.893547 153.055817,85.800873 
	C151.878754,85.701286 151.301804,85.637711 150.724854,85.574127 
	C150.863281,86.071136 151.001694,86.568146 151.140106,87.065155 
	C150.370346,87.459557 149.600571,87.853951 148.332703,88.067169 
	C147.222900,88.244347 146.611191,88.602692 145.999466,88.961037 
	C145.766785,89.198235 145.485657,89.337959 144.573669,89.183289 
	C142.659698,89.237755 141.328140,89.489159 139.996567,89.740555 
	C139.472366,89.757332 138.948181,89.774109 138.154755,89.287514 
	C136.409729,87.597855 134.969116,86.364105 133.448715,85.238083 
	C131.787766,84.007988 130.134674,82.727074 128.327393,81.746086 
	C126.522453,80.766373 124.530914,80.130424 122.621178,79.343773 
	C122.621178,79.343773 122.744827,79.052261 122.783691,78.762589 
	C123.372498,71.113060 123.750336,70.880905 130.219803,74.505844 
	C131.739883,75.357567 133.057800,76.574501 134.452515,77.644539 
	C136.483994,79.203087 138.437485,80.146690 140.350693,76.993797 
	C143.061432,75.121803 145.420013,73.344299 147.877625,71.931526 
	C148.945541,73.136536 149.914429,73.976814 151.213867,75.103767 
	C153.198822,65.230415 151.852432,62.805023 143.410767,60.939850 
	C140.883606,60.381485 138.151611,60.808571 135.525101,60.621052 
	C133.788467,60.497066 132.072586,60.082329 131.666260,60.015305 
	C132.917328,55.977245 133.897568,52.813358 134.877808,49.649475 
z"/>
<path fill="#E1C63F" opacity="1.000000" stroke="none" 
	d="
M94.788040,96.902863 
	C94.805344,98.783531 94.590118,100.666832 94.147820,102.297562 
	C93.953789,100.358040 93.986832,98.671089 94.037842,96.958847 
	C94.055801,96.933556 94.090988,96.882477 94.090988,96.882477 
	C94.090988,96.882477 94.555511,96.905495 94.788040,96.902863 
z"/>
<path fill="#E1C63F" opacity="1.000000" stroke="none" 
	d="
M93.092361,95.925690 
	C93.371338,96.085312 93.600128,96.289749 93.948029,96.701660 
	C94.090988,96.882477 94.055801,96.933556 93.851242,96.810532 
	C93.400696,96.482338 93.189316,96.246178 93.012543,95.979042 
	C93.012543,95.979042 93.065994,95.943840 93.092361,95.925690 
z"/>
<path fill="#383803" opacity="1.000000" stroke="none" 
	d="
M92.629974,95.933563 
	C93.189316,96.246178 93.400696,96.482338 93.833282,96.835831 
	C93.986832,98.671089 93.953789,100.358040 93.795410,102.367935 
	C93.670067,102.690872 93.747749,102.830421 93.586380,102.893188 
	C93.264000,103.248230 93.144440,103.556587 93.066345,103.881012 
	C90.847000,104.093506 88.411179,104.953407 86.478897,104.307335 
	C85.014015,103.817543 84.190781,101.408646 83.131607,99.471420 
	C84.164558,98.587807 85.147919,98.086502 86.345413,97.941803 
	C86.352257,99.405334 86.144951,100.512245 85.937653,101.619164 
	C87.852112,101.448975 89.805153,101.440407 91.654861,100.998924 
	C92.138382,100.883522 92.300591,99.421913 92.610367,98.578568 
	C91.159081,98.279572 89.711014,97.963364 88.254700,97.691299 
	C87.772453,97.601204 87.268990,97.624725 86.775223,97.596313 
	C88.599289,97.026901 90.423347,96.457489 92.629974,95.933563 
z"/>
<path fill="#F5C805" opacity="1.000000" stroke="none" 
	d="
M82.840019,98.650291 
	C82.405815,98.939926 81.998314,98.961113 81.282951,98.975914 
	C81.235672,98.495651 81.496246,98.021782 81.899490,97.319099 
	C82.317017,97.520813 82.591866,97.951332 82.840019,98.650291 
z"/>
<path fill="#E1C63F" opacity="1.000000" stroke="none" 
	d="
M93.267685,103.759628 
	C93.144440,103.556587 93.264000,103.248230 93.665634,102.883362 
	C93.850021,103.133980 93.704277,103.409805 93.267685,103.759628 
z"/>
<path fill="#F7F9F4" opacity="1.000000" stroke="none" 
	d="
M134.509705,49.715736 
	C133.897568,52.813358 132.917328,55.977245 131.666260,60.015305 
	C132.072586,60.082329 133.788467,60.497066 135.525101,60.621052 
	C138.151611,60.808571 140.883606,60.381485 143.410767,60.939850 
	C151.852432,62.805023 153.198822,65.230415 151.213867,75.103767 
	C149.914429,73.976814 148.945541,73.136536 147.899597,71.554428 
	C147.573303,64.584244 144.615295,62.164589 138.243256,62.976742 
	C134.542557,63.448421 131.661316,67.176628 133.281662,70.956390 
	C134.369446,73.493851 137.681595,75.077744 139.998520,77.088280 
	C138.437485,80.146690 136.483994,79.203087 134.452515,77.644539 
	C133.057800,76.574501 131.739883,75.357567 130.219803,74.505844 
	C123.750336,70.880905 123.372498,71.113060 122.729507,78.907166 
	C121.984543,77.908081 121.332626,76.474747 120.436035,74.798485 
	C120.191360,74.555557 120.290215,74.235268 120.170418,74.118057 
	C118.995674,68.340744 119.532730,62.969872 123.021980,57.722202 
	C123.417030,57.253139 123.653618,57.081734 123.853477,56.589417 
	C127.306587,54.172890 130.724091,51.977440 134.509705,49.715736 
z"/>
<path fill="#F7F9F4" opacity="1.000000" stroke="none" 
	d="
M122.716507,79.675781 
	C124.530914,80.130424 126.522453,80.766373 128.327393,81.746086 
	C130.134674,82.727074 131.787766,84.007988 133.448715,85.238083 
	C134.969116,86.364105 136.409729,87.597855 137.920517,89.162766 
	C131.743362,88.212891 126.042313,86.072525 122.716507,79.675781 
z"/>
<path fill="#F7F9F4" opacity="1.000000" stroke="none" 
	d="
M140.392181,89.827118 
	C141.328140,89.489159 142.659698,89.237755 144.340271,89.131874 
	C143.388794,89.489487 142.088287,89.701576 140.392181,89.827118 
z"/>
<path fill="#F7F9F4" opacity="1.000000" stroke="none" 
	d="
M151.423981,87.046768 
	C151.001694,86.568146 150.863281,86.071136 150.724854,85.574127 
	C151.301804,85.637711 151.878754,85.701286 152.716339,85.876419 
	C152.553925,86.334778 152.130890,86.681572 151.423981,87.046768 
z"/>
<path fill="#F7F9F4" opacity="1.000000" stroke="none" 
	d="
M146.295746,89.004745 
	C146.611191,88.602692 147.222900,88.244347 148.000092,88.122391 
	C147.641037,88.588676 147.116531,88.818565 146.295746,89.004745 
z"/>
<path class="eye" fill="#13292C" opacity="1.000000" stroke="none" 
	d="
M140.350693,76.993797 
	C137.681595,75.077744 134.369446,73.493851 133.281662,70.956390 
	C131.661316,67.176628 134.542557,63.448421 138.243256,62.976742 
	C144.615295,62.164589 147.573303,64.584244 147.800552,71.189697 
	C145.420013,73.344299 143.061432,75.121803 140.350693,76.993797 
z"/>
<path fill="#0E2A1F" opacity="1.000000" stroke="none" 
	d="
M86.787308,97.620781 
	C87.268990,97.624725 87.772453,97.601204 88.254700,97.691299 
	C89.711014,97.963364 91.159081,98.279572 92.610367,98.578568 
	C92.300591,99.421913 92.138382,100.883522 91.654861,100.998924 
	C89.805153,101.440407 87.852112,101.448975 85.937653,101.619164 
	C86.144951,100.512245 86.352257,99.405334 86.682549,97.954651 
	C86.805534,97.610886 86.799385,97.645256 86.787308,97.620781 
z"/>
</svg>
